<?xml version="1.0" standalone="no"?>
<!DOCTYPE svg PUBLIC "-//W3C//DTD SVG 1.1//EN" "http://www.w3.org/Graphics/SVG/1.1/DTD/svg11.dtd" >
<svg xmlns="http://www.w3.org/2000/svg">
<metadata>Generated by IcoMoon</metadata>
<defs>
<font id="dawgs-wallet-icons" horiz-adv-x="1024">
<font-face units-per-em="1024" ascent="960" descent="-64" />
<missing-glyph horiz-adv-x="1024" />
<glyph unicode="&#x20;" horiz-adv-x="512" d="" />
<glyph unicode="&#xe900;" glyph-name="add" d="M512 122.453c-14.845 0-26.88 12.035-26.88 26.88v0 597.333c0.24 14.661 12.181 26.453 26.877 26.453 0.001 0 0.002 0 0.004 0v0c14.61 0 26.453-11.844 26.453-26.453v0-597.333c0-0.001 0-0.002 0-0.003 0-14.695-11.793-26.636-26.431-26.876h-0.023zM810.667 421.12h-597.333c-1.015-0.136-2.188-0.213-3.38-0.213-14.845 0-26.88 12.035-26.88 26.88s12.035 26.88 26.88 26.88c1.191 0 2.365-0.078 3.515-0.228l-0.136 0.014h597.333c13.32-1.737 23.5-13.013 23.5-26.667s-10.18-24.93-23.365-26.652l-0.136-0.014z" />
<glyph unicode="&#xe901;" glyph-name="add-user" d="M682.667 37.547c-0.001 0-0.002 0-0.003 0-14.695 0-26.636 11.793-26.876 26.431v85.356c0 0 0 0 0 0.001 0 79.497-64.323 143.97-143.763 144.213h-298.69c-79.549-0.242-143.972-64.664-144.213-144.19v-85.356c-1.737-13.32-13.013-23.5-26.667-23.5s-24.93 10.18-26.652 23.365l-0.014 0.136v85.333c0.243 108.918 88.594 197.12 197.546 197.12 0 0 0 0 0 0h298.667c108.866 0 197.12-88.254 197.12-197.12v0-85.333c0-14.61-11.844-26.453-26.453-26.453v0zM362.667 464.213c-108.866 0-197.12 88.254-197.12 197.12s88.254 197.12 197.12 197.12c108.866 0 197.12-88.254 197.12-197.12v0c-0.242-108.769-88.351-196.878-197.097-197.12h-0.023zM362.667 805.547c-0.127 0-0.277 0.001-0.427 0.001-79.647 0-144.213-64.567-144.213-144.213s64.567-144.213 144.213-144.213c79.647 0 144.213 64.566 144.213 144.213v0c-0.24 79.4-64.421 143.73-143.741 144.213h-0.046zM853.333 336.213c-0.001 0-0.002 0-0.003 0-14.695 0-26.636 11.793-26.876 26.431v256.023c1.737 13.32 13.013 23.5 26.667 23.5s24.93-10.18 26.652-23.365l0.014-0.136v-256c0-14.61-11.844-26.453-26.453-26.453v0zM981.333 464.213h-256c-14.61 0-26.453 11.844-26.453 26.453s11.844 26.453 26.453 26.453h256c14.61 0 26.453-11.844 26.453-26.453s-11.844-26.453-26.453-26.453v0z" />
<glyph unicode="&#xe902;" glyph-name="alert" d="M150.613 37.547c-0.111 0-0.242-0.001-0.374-0.001-20.163 0-39.029 5.55-55.155 15.205l0.489-0.271c-34.322 19.631-57.077 56.025-57.077 97.734 0 20.215 5.346 39.182 14.7 55.564l-0.29-0.551 363.093 603.733c19.607 32.627 54.812 54.12 95.038 54.12 9.586 0 18.887-1.221 27.756-3.515l-0.767 0.168c29.622-7.050 54.031-25.467 68.845-50.276l0.275-0.498 361.813-603.307c9.651-16.037 15.36-35.396 15.36-56.087 0-0.082 0-0.164 0-0.246v0.013c0.005-0.389 0.008-0.848 0.008-1.308 0-30.557-12.214-58.262-32.027-78.498l0.019 0.019c-19.884-20.534-47.705-33.28-78.502-33.28-0.002 0-0.003 0-0.005 0v0zM461.653 781.653l-360.96-603.307c-4.916-8.379-7.82-18.454-7.82-29.207 0-21.492 11.599-40.275 28.879-50.431l0.274-0.149c8.353-4.794 18.301-7.758 28.912-8.104l0.101-0.003h722.347c16.699 0.049 31.79 6.894 42.66 17.913l0.007 0.007c10.315 10.212 16.702 24.375 16.702 40.029 0 0.928-0.022 1.85-0.067 2.767l0.005-0.129c0 0.048 0 0.106 0 0.163 0 10.616-2.851 20.567-7.829 29.127l0.149-0.277-363.093 601.6c-8.037 12.956-20.596 22.458-35.427 26.361l-0.413 0.092c-3.875 0.93-8.324 1.463-12.897 1.463-11 0-21.279-3.083-30.021-8.433l0.252 0.143c-8.724-5.011-15.987-11.593-21.622-19.425l-0.138-0.202zM512 378.88c-0.001 0-0.002 0-0.003 0-14.695 0-26.636 11.793-26.876 26.431v170.69c1.737 13.32 13.013 23.5 26.667 23.5s24.93-10.18 26.652-23.365l0.014-0.136v-170.667c0-14.61-11.844-26.453-26.453-26.453v0zM512 208.213c-0.001 0-0.002 0-0.003 0-14.695 0-26.636 11.793-26.876 26.431v0.023c0 14.61 11.844 26.453 26.453 26.453v0c14.61 0 26.453-11.844 26.453-26.453s-11.844-26.453-26.453-26.453v0z" />
<glyph unicode="&#xe903;" glyph-name="arrow-external" d="M751.787 661.333c0.193 1.346 0.303 2.9 0.303 4.48s-0.11 3.134-0.323 4.655l0.020-0.175c-1.095 2.115-2.373 3.937-3.858 5.567l0.018-0.020v2.987l-3.84 2.56-4.693 3.413c-1.539 0.294-3.31 0.462-5.12 0.462s-3.581-0.168-5.297-0.49l0.177 0.028h-430.507c-10.284-3.929-17.455-13.714-17.455-25.173s7.171-21.244 17.27-25.111l0.184-0.062h362.24l-381.013-381.013c-4.935-4.744-8-11.401-8-18.773s3.066-14.030 7.992-18.765l0.009-0.008c4.689-5.047 11.364-8.195 18.773-8.195s14.084 3.148 18.759 8.179l0.015 0.016 381.44 381.013v-362.24c0-14.61 11.844-26.453 26.453-26.453s26.453 11.844 26.453 26.453v0 426.667z" />
<glyph unicode="&#xe904;" glyph-name="arrow-right" d="M835.413 437.76c0.193 1.346 0.303 2.9 0.303 4.48s-0.11 3.134-0.323 4.655l0.020-0.175v1.28c0.193 1.346 0.303 2.9 0.303 4.48s-0.11 3.134-0.323 4.655l0.020-0.175c-1.413 2.591-2.969 4.827-4.736 6.877l0.042-0.050s0 0 0 0l-298.667 298.667c-4.805 4.805-11.442 7.776-18.773 7.776-14.663 0-26.55-11.887-26.55-26.55 0-7.331 2.972-13.969 7.776-18.773v0l253.013-253.44h-534.187c-14.61 0-26.453-11.844-26.453-26.453s11.844-26.453 26.453-26.453h532.907l-253.013-253.44c-4.935-4.744-8-11.401-8-18.773s3.066-14.030 7.992-18.765l0.009-0.008c4.84-4.726 11.466-7.642 18.773-7.642s13.933 2.916 18.779 7.647l298.662 298.662s0 0 0 0c2.506 3.292 4.538 7.116 5.895 11.246l0.078 0.274z" />
<glyph unicode="&#xe905;" glyph-name="bell" d="M896 207.787h-768c-12.042 0.074-22.201 8.055-25.55 19.010l-0.050 0.19c-0.748 2.336-1.18 5.024-1.18 7.812 0 9.169 4.665 17.248 11.751 21.995l0.096 0.060s116.48 85.333 116.48 361.813c0 155.995 126.459 282.453 282.453 282.453s282.453-126.459 282.453-282.453v0c0-277.76 115.2-361.387 116.48-361.813 7.108-4.909 11.706-13.011 11.706-22.188 0-14.761-11.898-26.743-26.627-26.879h-0.013zM189.867 261.12h644.267c-40.533 55.467-92.587 164.267-92.587 357.547 0 126.775-102.772 229.547-229.547 229.547s-229.547-102.772-229.547-229.547v0c0-193.28-52.053-302.080-92.587-357.547zM512-5.12c-0.233-0.002-0.508-0.003-0.784-0.003-40.948 0-76.694 22.272-95.786 55.362l-0.284 0.534c-2.217 3.797-3.527 8.359-3.527 13.227 0 14.672 11.894 26.567 26.567 26.567 9.805 0 18.369-5.311 22.972-13.213l0.068-0.126c5.388-8.772 12.561-15.945 21.058-21.176l0.275-0.158c8.401-4.841 18.476-7.696 29.217-7.696 21.582 0 40.472 11.528 50.847 28.762l0.149 0.267c4.508 8.132 13.041 13.545 22.838 13.545 4.961 0 9.597-1.388 13.543-3.797l-0.114 0.065c8.050-4.638 13.382-13.195 13.382-22.998 0-4.887-1.325-9.464-3.636-13.393l0.067 0.124c-19.757-33.601-55.703-55.817-96.842-55.893h-0.011z" />
<glyph unicode="&#xe906;" glyph-name="bell-off" d="M512-5.12c-20.716 0.054-40.128 5.589-56.877 15.229l0.557-0.295c-17.073 10.533-30.811 24.954-40.238 42.082l-0.295 0.585c-2.217 3.797-3.527 8.359-3.527 13.227 0 14.672 11.894 26.567 26.567 26.567 9.805 0 18.369-5.311 22.972-13.213l0.068-0.126c10.418-17.513 29.247-29.065 50.773-29.065s40.355 11.552 50.624 28.795l0.149 0.27c4.508 8.132 13.041 13.545 22.838 13.545 4.961 0 9.597-1.388 13.543-3.797l-0.114 0.065c8.050-4.638 13.382-13.195 13.382-22.998 0-4.887-1.325-9.464-3.636-13.393l0.067 0.124c-19.492-34.161-55.439-56.965-96.764-57.599l-0.089-0.001zM794.88 378.453c-12.148 0.132-22.352 8.302-25.553 19.437l-0.047 0.19c-17.914 63.369-28.213 136.144-28.213 211.325 0 3.257 0.019 6.509 0.058 9.756l-0.005-0.494c0.24 14.661 12.181 26.453 26.877 26.453 0.001 0 0.002 0 0.004 0v0c14.427-0.238 26.030-11.989 26.030-26.45 0-0.151-0.001-0.302-0.004-0.453v0.023c-0.047-3.107-0.073-6.774-0.073-10.447 0-69.597 9.528-136.969 27.349-200.882l-1.25 5.25c0.593-2.088 0.933-4.487 0.933-6.965 0-12.056-8.064-22.228-19.093-25.416l-0.187-0.046zM768 591.787v0c-14.845 0-26.88 12.035-26.88 26.88v0c0 0.127 0 0.277 0 0.427 0 126.539-102.581 229.12-229.12 229.12 0 0 0 0 0 0v0c-0.38 0.002-0.831 0.004-1.281 0.004-47.234 0-91.116-14.346-127.529-38.919l0.81 0.515c-4.187-2.822-9.345-4.505-14.897-4.505-9.199 0-17.318 4.621-22.164 11.668l-0.059 0.091c-2.726 4.177-4.347 9.29-4.347 14.782 0 9.197 4.547 17.333 11.516 22.281l0.084 0.057c44.046 29.672 98.304 47.362 156.693 47.362 0.413 0 0.825-0.001 1.238-0.003h-0.064c0 0 0 0 0 0 155.995 0 282.453-126.459 282.453-282.453 0-0.15 0-0.3 0-0.45v0.023c0-0.001 0-0.002 0-0.003 0-14.695-11.793-26.636-26.431-26.876h-0.023zM1000.107-2.56l-938.667 938.667c-4.744 4.935-11.401 8-18.773 8s-14.030-3.066-18.765-7.992l-0.008-0.009c-4.935-4.744-8-11.401-8-18.773s3.066-14.030 7.992-18.765l0.009-0.008 213.333-213.333c-5.152-19.528-8.111-41.947-8.111-65.057 0-0.529 0.002-1.057 0.005-1.585v0.081c0-277.76-114.773-361.387-116.053-361.813-7.182-4.806-11.846-12.886-11.846-22.055 0-2.788 0.431-5.476 1.231-7.999l-0.051 0.187c3.399-11.145 13.558-19.126 25.591-19.2h586.249l248.32-247.893c4.689-5.047 11.364-8.195 18.773-8.195s14.084 3.148 18.759 8.179l0.015 0.016c4.935 4.744 8 11.401 8 18.773s-3.066 14.030-7.992 18.765l-0.009 0.008zM189.44 261.12c42.667 55.467 92.587 164.267 92.587 357.547 0 6.4 0 12.8 0 19.627l376.747-377.173z" />
<glyph unicode="&#xe907;" glyph-name="chat" d="M128 37.547c-1.539-0.294-3.31-0.462-5.12-0.462s-3.581 0.168-5.297 0.49l0.177-0.028c-9.88 4.256-16.671 13.91-16.671 25.15 0 0.458 0.011 0.914 0.034 1.367l-0.003-0.064v682.667c0 0 0 0.001 0 0.001 0 61.738 50.049 111.787 111.787 111.787 0.15 0 0.3 0 0.45-0.001h597.31c61.738 0 111.787-50.049 111.787-111.787v0-426.667c0-61.738-50.049-111.787-111.787-111.787v0h-500.907l-162.987-162.987c-4.78-4.747-11.366-7.68-18.637-7.68-0.048 0-0.096 0-0.143 0h0.007zM213.333 805.547c-32.519 0-58.88-26.361-58.88-58.88v0-618.24l125.44 125.013c4.584 4.744 11.003 7.689 18.11 7.689 0.233 0 0.465-0.003 0.697-0.009l-0.034 0.001h512c0 0 0.001 0 0.002 0 32.283 0 58.453 26.17 58.453 58.453 0 0.15-0.001 0.3-0.002 0.45v-0.023 426.667c0.001 0.127 0.002 0.277 0.002 0.427 0 32.283-26.17 58.453-58.453 58.453-0.001 0-0.001 0-0.002 0v0z" />
<glyph unicode="&#xe908;" glyph-name="chat-more" d="M128 37.12c-3.713 0.102-7.218 0.877-10.436 2.205l0.196-0.072c-9.746 4.212-16.476 13.673-16.64 24.726v682.688c0 0 0 0.001 0 0.001 0 61.738 50.049 111.787 111.787 111.787 0.15 0 0.3 0 0.45-0.001h597.31c61.738 0 111.787-50.049 111.787-111.787v0-426.667c0.001-0.127 0.001-0.277 0.001-0.427 0-61.738-50.049-111.787-111.787-111.787 0 0-0.001 0-0.001 0h-500.907l-162.987-162.56c-4.78-4.897-11.405-7.974-18.749-8.106h-0.025zM213.333 805.12c-0.127 0.001-0.277 0.002-0.427 0.002-32.283 0-58.453-26.17-58.453-58.453 0-0.001 0-0.001 0-0.002v0-618.24l125.44 125.013c4.584 4.744 11.003 7.689 18.11 7.689 0.233 0 0.465-0.003 0.697-0.009l-0.034 0.001h512c0 0 0.001 0 0.002 0 32.283 0 58.453 26.17 58.453 58.453 0 0.15-0.001 0.3-0.002 0.45v-0.023 426.667c0 32.283-26.17 58.453-58.453 58.453v0zM466.773 526.080c-0.001 0.127-0.002 0.277-0.002 0.427 0 24.978 20.249 45.227 45.227 45.227s45.227-20.249 45.227-45.227c0-24.977-20.248-45.226-45.225-45.227v0c-0.001 0-0.001 0-0.002 0-24.828 0-44.983 20.006-45.224 44.777v0.023zM677.12 526.080c-0.001 0.127-0.002 0.277-0.002 0.427 0 24.978 20.249 45.227 45.227 45.227s45.227-20.249 45.227-45.227c0-24.977-20.248-45.226-45.225-45.227v0c-0.127-0.001-0.277-0.002-0.427-0.002-24.742 0-44.8 20.058-44.8 44.8 0 0.001 0 0.001 0 0.002v0zM256 526.080c-0.001 0.126-0.002 0.275-0.002 0.425 0 24.978 20.249 45.227 45.227 45.227s45.227-20.249 45.227-45.227c0-24.978-20.249-45.227-45.227-45.227-0.149 0-0.298 0.001-0.447 0.002h0.023c-24.742 0-44.8 20.058-44.8 44.8v0z" />
<glyph unicode="&#xe909;" glyph-name="chevron-right" d="M362.667 122.453c-7.369 0.132-13.993 3.21-18.768 8.101l-0.005 0.005c-4.935 4.744-8 11.401-8 18.773s3.066 14.030 7.992 18.765l0.009 0.008 279.893 279.893-279.893 279.893c-4.805 4.805-7.776 11.442-7.776 18.773 0 14.663 11.887 26.55 26.55 26.55 7.331 0 13.969-2.972 18.773-7.776l298.667-298.667c4.935-4.744 8-11.401 8-18.773s-3.066-14.030-7.992-18.765l-0.009-0.008-298.667-298.667c-4.78-4.897-11.405-7.974-18.749-8.106h-0.025z" />
<glyph unicode="&#xe90a;" glyph-name="close" d="M549.547 448l237.227 237.227c4.805 4.805 7.776 11.442 7.776 18.773 0 14.663-11.887 26.55-26.55 26.55-7.331 0-13.969-2.972-18.773-7.776l-237.227-237.227-237.227 237.227c-4.805 4.805-11.442 7.776-18.773 7.776-14.663 0-26.55-11.887-26.55-26.55 0-7.331 2.972-13.969 7.776-18.773l237.227-237.227-237.227-237.227c-4.935-4.744-8-11.401-8-18.773s3.066-14.030 7.992-18.765l0.009-0.008c4.84-4.726 11.466-7.642 18.773-7.642s13.933 2.916 18.779 7.647l237.222 237.222 237.227-237.227c4.84-4.726 11.466-7.642 18.773-7.642s13.933 2.916 18.779 7.647l-0.005-0.005c4.935 4.744 8 11.401 8 18.773s-3.066 14.030-7.992 18.765l-0.009 0.008z" />
<glyph unicode="&#xe90b;" glyph-name="edit" d="M768-5.12h-597.333c-0.127-0.001-0.277-0.001-0.427-0.001-61.738 0-111.787 50.049-111.787 111.787 0 0 0 0.001 0 0.001v0 597.333c0 0 0 0.001 0 0.001 0 61.738 50.049 111.787 111.787 111.787 0.15 0 0.3 0 0.45-0.001h298.644c14.61 0 26.453-11.844 26.453-26.453s-11.844-26.453-26.453-26.453h-298.667c-32.519 0-58.88-26.361-58.88-58.88v0-597.333c0-32.519 26.361-58.88 58.88-58.88v0h597.333c0 0 0.001 0 0.002 0 32.283 0 58.453 26.17 58.453 58.453 0 0.15-0.001 0.3-0.002 0.45v-0.023 298.667c1.737 13.32 13.013 23.5 26.667 23.5s24.93-10.18 26.652-23.365l0.014-0.136v-298.667c0-61.738-50.049-111.787-111.787-111.787v0zM341.333 250.88c-14.767 0.103-26.699 12.098-26.699 26.879 0 2.118 0.245 4.179 0.708 6.156l-0.036-0.182 42.667 170.667c1.389 4.867 3.903 9.038 7.252 12.372l405.334 405.334c21.436 20.621 50.622 33.322 82.773 33.322s61.337-12.701 82.812-33.359l-0.039 0.037c21.324-21.119 34.528-50.404 34.528-82.773s-13.203-61.655-34.519-82.764l-405.342-405.342c-3.335-3.35-7.506-5.865-12.175-7.205l-0.199-0.049-170.667-42.667zM407.893 434.347l-29.867-120.32 120.32 29.867 400.213 400.213c11.565 11.579 18.717 27.568 18.717 45.227s-7.152 33.648-18.718 45.227l0.001-0.001c-11.796 11.077-27.716 17.882-45.227 17.882s-33.431-6.805-45.262-17.915l0.035 0.033z" />
<glyph unicode="&#xe90c;" glyph-name="link" d="M597.333 293.12c0 0-0.001 0-0.002 0-78.339 0-147.888 37.634-191.554 95.808l-0.444 0.618c-3.251 4.354-5.206 9.842-5.206 15.787 0 14.657 11.882 26.539 26.539 26.539 8.713 0 16.445-4.198 21.283-10.683l0.050-0.070c34.46-45.515 88.533-74.616 149.402-74.616 42.102 0 80.952 13.922 112.198 37.415l-0.48-0.345c7.557 5.656 14.237 11.389 20.518 17.53l-0.038-0.037 128 128c30.819 33.224 49.729 77.873 49.729 126.939 0 103.211-83.669 186.88-186.88 186.88-49.278 0-94.102-19.073-127.491-50.24l0.109 0.101-72.96-72.533c-4.805-4.805-11.442-7.776-18.773-7.776-14.663 0-26.55 11.887-26.55 26.55 0 7.331 2.972 13.969 7.776 18.773v0l72.107 74.24c43.289 42.436 102.64 68.627 168.108 68.627 132.343 0 239.689-107.023 240.211-239.244v-0.050c0.018-1.102 0.028-2.402 0.028-3.704 0-64.818-25.536-123.671-67.097-167.049l0.082 0.086-128-128c-7.916-8.047-16.413-15.462-25.446-22.199l-0.581-0.414c-39.363-29.321-88.948-46.942-142.648-46.942-0.7 0-1.4 0.003-2.099 0.009l0.107-0.001zM300.8-2.987c-0.361-0.002-0.788-0.003-1.215-0.003-132.666 0-240.213 107.547-240.213 240.213 0 65.469 26.191 124.821 68.667 168.149l-0.039-0.040 128 128c7.916 8.047 16.413 15.462 25.446 22.199l0.581 0.414c39.524 29.816 89.467 47.753 143.599 47.753 78.388 0 147.992-37.614 191.745-95.779l0.443-0.614c3.251-4.354 5.206-9.842 5.206-15.787 0-14.657-11.882-26.539-26.539-26.539-8.713 0-16.445 4.198-21.283 10.683l-0.050 0.070c-34.371 45.608-88.436 74.786-149.316 74.786-42.155 0-81.043-13.99-112.274-37.58l0.471 0.341c-7.557-5.656-14.237-11.389-20.518-17.53l0.038 0.037-128-128c-30.819-33.224-49.729-77.873-49.729-126.939 0-103.211 83.669-186.88 186.88-186.88 49.278 0 94.102 19.073 127.491 50.24l-0.109-0.101 72.533 72.533c4.805 4.805 11.442 7.776 18.773 7.776 14.663 0 26.55-11.887 26.55-26.55 0-7.331-2.972-13.969-7.776-18.773v0l-70.827-75.093c-43.164-41.462-101.899-66.994-166.598-66.994-0.68 0-1.36 0.003-2.039 0.008l0.104-0.001z" />
<glyph unicode="&#xe90d;" glyph-name="menu" d="M896 421.547h-768c-14.61 0-26.453 11.844-26.453 26.453s11.844 26.453 26.453 26.453h768c14.61 0 26.453-11.844 26.453-26.453s-11.844-26.453-26.453-26.453v0zM896 677.547h-768c-14.61 0-26.453 11.844-26.453 26.453s11.844 26.453 26.453 26.453h768c14.61 0 26.453-11.844 26.453-26.453s-11.844-26.453-26.453-26.453v0zM896 165.547h-768c-14.61 0-26.453 11.844-26.453 26.453s11.844 26.453 26.453 26.453h768c14.61 0 26.453-11.844 26.453-26.453s-11.844-26.453-26.453-26.453v0z" />
<glyph unicode="&#xe90e;" glyph-name="moon" d="M514.56 38.827c-12.8 0-26.027 0-38.827 0-209.203 20.895-371.205 196.009-371.205 408.96s162.003 388.065 369.488 408.821l1.717 0.139c0.927 0.119 1.999 0.187 3.087 0.187 9.673 0 18.093-5.365 22.446-13.281l0.067-0.133c2.715-4.087 4.332-9.108 4.332-14.507s-1.617-10.419-4.393-14.605l0.061 0.098c-33.085-44.546-52.963-100.62-52.963-161.337 0-150.339 121.874-272.213 272.213-272.213 60.717 0 116.79 19.878 162.068 53.482l-0.731-0.519c4.462 3.551 10.181 5.697 16.4 5.697 14.61 0 26.453-11.844 26.453-26.453 0-1.106-0.068-2.195-0.2-3.265l0.013 0.128c-19.831-209.661-194.78-372.457-407.847-372.907h-0.046zM426.667 795.733c-156.554-40.15-270.414-179.996-270.414-346.434 0-197.232 159.888-357.12 357.12-357.12 87.222 0 167.141 31.269 229.159 83.209l-0.558-0.455c57.281 47.404 99.037 111.743 117.664 185.298l0.523 2.435c-41.343-20.62-90.057-32.689-141.589-32.689-72.88 0-140.122 24.138-194.167 64.856l0.823-0.594c-79.691 59.924-130.687 154.294-130.687 260.574 0 51.246 11.856 99.723 32.976 142.837l-0.848-1.917z" />
<glyph unicode="&#xe90f;" glyph-name="more" d="M512 384c-35.346 0-64 28.654-64 64s28.654 64 64 64c35.346 0 64-28.654 64-64v0c0-35.346-28.654-64-64-64v0zM512 682.667c-35.346 0-64 28.654-64 64s28.654 64 64 64c35.346 0 64-28.654 64-64v0c0-35.346-28.654-64-64-64v0zM512 85.333c-35.346 0-64 28.654-64 64s28.654 64 64 64c35.346 0 64-28.654 64-64v0c0-35.346-28.654-64-64-64v0z" />
<glyph unicode="&#xe910;" glyph-name="nfc" d="M725.333 815.787h-426.667c0 0 0 0-0.001 0-85.388 0-154.637-69.099-154.879-154.43v-426.69c0.242-85.44 69.44-154.638 154.857-154.88h426.69c85.354 0.243 154.453 69.492 154.453 154.879 0 0 0 0 0 0.001v0 426.667c0 85.302-69.151 154.453-154.453 154.453v0zM826.453 234.667c0 0 0-0.001 0-0.001 0-55.933-45.221-101.303-101.097-101.546h-256.023c-55.985 0.241-101.305 45.561-101.547 101.523v404.93l168.107-167.68c4.805-4.805 11.442-7.776 18.773-7.776 14.663 0 26.55 11.887 26.55 26.55 0 7.331-2.972 13.969-7.776 18.773v0l-213.333 213.333c-4.923 4.837-11.679 7.824-19.133 7.824-3.555 0-6.951-0.679-10.065-1.915l0.185 0.065c-9.746-4.212-16.476-13.673-16.64-24.726v-469.354c0.182-39.061 14.876-74.655 38.962-101.701l-0.135 0.154h-54.613c-55.985 0.241-101.305 45.561-101.547 101.523v426.69c0.242 55.899 45.613 101.12 101.546 101.12 0 0 0.001 0 0.001 0h256c55.847 0 101.12-45.273 101.12-101.12v0-404.907l-167.68 167.68c-4.805 4.805-11.442 7.776-18.773 7.776-14.663 0-26.55-11.887-26.55-26.55 0-7.331 2.972-13.969 7.776-18.773v0l213.333-213.333c4.78-4.897 11.405-7.974 18.749-8.106h0.025c3.713 0.102 7.218 0.877 10.436 2.205l-0.196-0.072c9.571 4.332 16.128 13.763 16.213 24.736v469.344c-0.166 38.855-14.694 74.284-38.544 101.286l0.144-0.166h54.613c55.847 0 101.12-45.273 101.12-101.12v0z" />
<glyph unicode="&#xe911;" glyph-name="qr" d="M384 506.88h-170.667c-0.127-0.001-0.277-0.001-0.427-0.001-38.174 0-69.12 30.946-69.12 69.12 0 0 0 0.001 0 0.001v0 170.667c0 0 0 0.001 0 0.001 0 38.174 30.946 69.12 69.12 69.12 0.15 0 0.3 0 0.45-0.001h170.644c0.127 0.001 0.278 0.001 0.428 0.001 37.938 0 68.693-30.755 68.693-68.693 0-0.15 0-0.301-0.001-0.451v0.023-170.667c0.001-0.127 0.001-0.278 0.001-0.428 0-37.938-30.755-68.693-68.693-68.693-0.15 0-0.301 0-0.451 0.001h0.023zM213.333 762.88c-8.954 0-16.213-7.259-16.213-16.213v0-170.667c0-8.954 7.259-16.213 16.213-16.213v0h170.667c0.002 0 0.004 0 0.006 0 8.719 0 15.787 7.068 15.787 15.787 0 0.15-0.002 0.3-0.006 0.449v-0.022 170.667c0.004 0.127 0.006 0.277 0.006 0.427 0 8.719-7.068 15.787-15.787 15.787-0.002 0-0.004 0-0.006 0v0zM298.667 207.787c-14.845 0-26.88 12.035-26.88 26.88v0c0.24 14.661 12.181 26.453 26.877 26.453 0.001 0 0.002 0 0.004 0v0c14.61 0 26.453-11.844 26.453-26.453v0c0.002-0.127 0.003-0.277 0.003-0.427 0-14.61-11.844-26.453-26.453-26.453-0.001 0-0.002 0-0.004 0v0zM810.667 506.88h-170.667c-0.127-0.001-0.277-0.001-0.427-0.001-38.174 0-69.12 30.946-69.12 69.12 0 0 0 0.001 0 0.001v0 170.667c0 0 0 0.001 0 0.001 0 38.174 30.946 69.12 69.12 69.12 0.15 0 0.3 0 0.45-0.001h170.644c0.127 0.001 0.278 0.001 0.428 0.001 37.938 0 68.693-30.755 68.693-68.693 0-0.15 0-0.301-0.001-0.451v0.023-170.667c0.001-0.127 0.001-0.278 0.001-0.428 0-37.938-30.755-68.693-68.693-68.693-0.15 0-0.301 0-0.451 0.001h0.023zM640 762.88c-8.954 0-16.213-7.259-16.213-16.213v0-170.667c0-8.954 7.259-16.213 16.213-16.213v0h170.667c0.002 0 0.004 0 0.006 0 8.719 0 15.787 7.068 15.787 15.787 0 0.15-0.002 0.3-0.006 0.449v-0.022 170.667c0.004 0.127 0.006 0.277 0.006 0.427 0 8.719-7.068 15.787-15.787 15.787-0.002 0-0.004 0-0.006 0v0zM298.667 634.453c-1.015-0.136-2.188-0.213-3.38-0.213-14.845 0-26.88 12.035-26.88 26.88s12.035 26.88 26.88 26.88c1.191 0 2.365-0.078 3.515-0.228l-0.136 0.014c14.61 0 26.453-11.844 26.453-26.453v0c0.002-0.127 0.003-0.277 0.003-0.427 0-14.61-11.844-26.453-26.453-26.453-0.001 0-0.002 0-0.004 0v0zM384 80.213h-170.667c-0.127-0.001-0.277-0.001-0.427-0.001-38.174 0-69.12 30.946-69.12 69.12 0 0 0 0.001 0 0.001v0 170.667c0 0 0 0.001 0 0.001 0 38.174 30.946 69.12 69.12 69.12 0.15 0 0.3 0 0.45-0.001h170.644c0.127 0.001 0.278 0.001 0.428 0.001 37.938 0 68.693-30.755 68.693-68.693 0-0.15 0-0.301-0.001-0.451v0.023-170.667c0.001-0.127 0.001-0.278 0.001-0.428 0-37.938-30.755-68.693-68.693-68.693-0.15 0-0.301 0-0.451 0.001h0.023zM213.333 336.213c-8.954 0-16.213-7.259-16.213-16.213v0-170.667c0-8.954 7.259-16.213 16.213-16.213v0h170.667c0.002 0 0.004 0 0.006 0 8.719 0 15.787 7.068 15.787 15.787 0 0.15-0.002 0.3-0.006 0.449v-0.022 170.667c0.004 0.127 0.006 0.277 0.006 0.427 0 8.719-7.068 15.787-15.787 15.787-0.002 0-0.004 0-0.006 0v0zM725.333 634.453c-1.015-0.136-2.188-0.213-3.38-0.213-14.845 0-26.88 12.035-26.88 26.88s12.035 26.88 26.88 26.88c1.191 0 2.365-0.078 3.515-0.228l-0.136 0.014c14.61 0 26.453-11.844 26.453-26.453v0c0.002-0.127 0.003-0.277 0.003-0.427 0-14.61-11.844-26.453-26.453-26.453-0.001 0-0.002 0-0.004 0v0zM725.333 336.213h-128c-14.61 0-26.453 11.844-26.453 26.453s11.844 26.453 26.453 26.453h128c14.61 0 26.453-11.844 26.453-26.453s-11.844-26.453-26.453-26.453v0zM853.333 335.787c-0.001 0-0.002 0-0.003 0-14.695 0-26.636 11.793-26.876 26.431v0.023c0 14.845 12.035 26.88 26.88 26.88v0c14.61 0 26.453-11.844 26.453-26.453v0c0.002-0.127 0.003-0.277 0.003-0.427 0-14.61-11.844-26.453-26.453-26.453-0.001 0-0.002 0-0.004 0v0zM597.333 208.213c-0.001 0-0.002 0-0.003 0-14.695 0-26.636 11.793-26.876 26.431v128.023c1.737 13.32 13.013 23.5 26.667 23.5s24.93-10.18 26.652-23.365l0.014-0.136v-128c0-14.61-11.844-26.453-26.453-26.453v0zM725.333 80.213h-128c-14.61 0-26.453 11.844-26.453 26.453s11.844 26.453 26.453 26.453h128c14.61 0 26.453-11.844 26.453-26.453s-11.844-26.453-26.453-26.453v0zM853.333 208.213h-128c-14.61 0-26.453 11.844-26.453 26.453s11.844 26.453 26.453 26.453h128c14.61 0 26.453-11.844 26.453-26.453s-11.844-26.453-26.453-26.453v0zM853.333 80.213c-0.001 0-0.002 0-0.003 0-14.695 0-26.636 11.793-26.876 26.431v128.023c1.737 13.32 13.013 23.5 26.667 23.5s24.93-10.18 26.652-23.365l0.014-0.136v-128c0-14.61-11.844-26.453-26.453-26.453v0z" />
<glyph unicode="&#xe912;" glyph-name="return" d="M878.080 309.76c0.193 1.346 0.303 2.9 0.303 4.48s-0.11 3.134-0.323 4.655l0.020-0.175v1.28c0.193 1.346 0.303 2.9 0.303 4.48s-0.11 3.134-0.323 4.655l0.020-0.175c-1.095 2.115-2.373 3.937-3.858 5.567l0.018-0.020v2.987l-213.333 213.333c-4.805 4.805-11.442 7.776-18.773 7.776-14.663 0-26.55-11.887-26.55-26.55 0-7.331 2.972-13.969 7.776-18.773v0l167.68-168.107h-449.707c-79.7 0.241-144.216 64.906-144.216 144.639 0 0.3 0.001 0.6 0.003 0.9v-0.046 298.667c-1.737 13.32-13.013 23.5-26.667 23.5s-24.93-10.18-26.652-23.365l-0.014-0.136v-298.667c0.243-108.918 88.594-197.12 197.546-197.12 0 0 0 0 0 0h447.573l-167.68-168.107c-4.935-4.744-8-11.401-8-18.773s3.066-14.030 7.992-18.765l0.009-0.008c4.84-4.726 11.466-7.642 18.773-7.642s13.933 2.916 18.779 7.647l213.328 213.328v2.987c2.31 1.555 4.281 3.391 5.932 5.491l0.042 0.055z" />
<glyph unicode="&#xe913;" glyph-name="search" d="M469.333 122.88c-203.123 0-367.787 164.664-367.787 367.787s164.664 367.787 367.787 367.787c203.123 0 367.787-164.664 367.787-367.787v0c-0.243-203.026-164.762-367.544-367.764-367.787h-0.023zM469.333 805.547c-0.127 0-0.277 0-0.427 0-173.903 0-314.88-140.977-314.88-314.88s140.977-314.88 314.88-314.88c173.903 0 314.88 140.977 314.88 314.88v0c-0.242 173.656-140.831 314.395-314.407 314.88h-0.046zM896 42.667c-0.073-0.001-0.159-0.001-0.244-0.001-5.795 0-11.017 2.458-14.678 6.389l-0.011 0.012-185.6 185.6c-3.822 3.822-6.186 9.102-6.186 14.933 0 11.664 9.455 21.119 21.119 21.119 5.832 0 11.112-2.364 14.933-6.186l185.6-185.6c3.984-3.745 6.465-9.050 6.465-14.933s-2.481-11.188-6.454-14.923l-0.011-0.010c-3.672-3.943-8.893-6.401-14.689-6.401-0.086 0-0.172 0.001-0.257 0.002h0.013z" />
<glyph unicode="&#xe914;" glyph-name="send" d="M964.693 878.507s0 0 0 3.413c-2.106 8.92-9 15.814-17.758 17.888l-0.162 0.032h-3.413c-1.666 0.4-3.58 0.63-5.547 0.63s-3.88-0.229-5.715-0.663l0.168 0.033-853.333-298.667c-11.449-2.923-19.819-13.039-20.053-25.147v-0.026c-0.046-0.576-0.073-1.248-0.073-1.926 0-10.625 6.473-19.738 15.691-23.612l0.169-0.063 374.613-166.4 166.4-374.613c4.080-9.363 13.254-15.79 23.929-15.79 0.138 0 0.275 0.001 0.412 0.003h-0.021c11.126 0.373 20.508 7.453 24.258 17.309l0.062 0.185 298.667 853.333c1.295 2.932 2.048 6.351 2.048 9.946 0 1.46-0.124 2.891-0.363 4.283l0.021-0.149zM836.693 811.093l-373.76-373.76-305.493 135.68zM637.013 93.44l-135.68 305.92 373.333 373.76z" />
<glyph unicode="&#xe915;" glyph-name="settings" d="M512 293.547c-85.302 0-154.453 69.151-154.453 154.453s69.151 154.453 154.453 154.453c85.302 0 154.453-69.151 154.453-154.453v0c-0.242-85.205-69.249-154.211-154.43-154.453h-0.023zM512 549.547c-0.127 0.001-0.277 0.001-0.427 0.001-56.083 0-101.547-45.464-101.547-101.547s45.464-101.547 101.547-101.547c56.082 0 101.546 45.463 101.547 101.546v0c-0.239 55.837-45.318 101.065-101.074 101.546h-0.046zM515.413-47.787c-0.127-0.001-0.277-0.001-0.427-0.001-61.738 0-111.787 50.049-111.787 111.787 0 0 0 0.001 0 0.001v0c0.042 0.707 0.066 1.535 0.066 2.367 0 18.544-11.83 34.324-28.354 40.207l-0.298 0.093c-5.581 2.867-12.178 4.547-19.167 4.547-11.86 0-22.59-4.839-30.323-12.651l-0.003-0.004c-20.592-21.321-49.434-34.56-81.368-34.56-0.044 0-0.088 0-0.132 0h0.007c-0.061 0-0.133 0-0.205 0-61.738 0-111.787 50.049-111.787 111.787 0 31.026 12.64 59.1 33.051 79.353l0.007 0.007c8.995 8.293 14.61 20.135 14.61 33.288 0 6.312-1.293 12.323-3.629 17.78l0.112-0.295c-6.554 15.658-21.75 26.458-39.468 26.458-0.225 0-0.449-0.002-0.672-0.005h-7.646c-2.068-0.136-4.483-0.213-6.916-0.213-61.974 0-112.213 50.24-112.213 112.213s50.24 112.213 112.213 112.213c2.433 0 4.848-0.077 7.243-0.23l-0.327 0.017c0.664-0.037 1.442-0.058 2.224-0.058 18.699 0 34.589 12.029 40.353 28.771l0.090 0.3c2.867 5.581 4.547 12.178 4.547 19.167 0 11.86-4.839 22.59-12.651 30.323l-0.004 0.003c-20.853 20.458-33.777 48.933-33.777 80.427s12.925 59.968 33.76 80.409l0.018 0.017c19.914 20.284 47.623 32.855 78.268 32.855 0.234 0 0.468-0.001 0.701-0.002h-0.036c0.092 0 0.201 0 0.309 0 30.757 0 58.579-12.565 78.613-32.843l0.011-0.011c8.293-8.995 20.135-14.61 33.288-14.61 6.312 0 12.323 1.293 17.78 3.629l-0.295-0.112c2.236 1.039 4.831 1.79 7.555 2.121l0.125 0.012c13.322 7.393 22.19 21.377 22.19 37.432 0 0.19-0.001 0.38-0.004 0.57v-0.029 7.253c3.75 58.925 52.46 105.297 112 105.297s108.25-46.372 111.983-104.97l0.017-0.327c-0.002-0.15-0.003-0.326-0.003-0.503 0-18.562 10.875-34.584 26.601-42.043l0.282-0.12c5.204-2.436 11.299-3.857 17.727-3.857 11.94 0 22.735 4.905 30.48 12.81l0.007 0.007c20.444 20.738 48.816 33.614 80.196 33.707h0.018c0.482 0.008 1.051 0.012 1.621 0.012 30.481 0 58.023-12.584 77.714-32.84l0.025-0.025c20.29-20.239 32.843-48.227 32.843-79.147s-12.553-58.907-32.841-79.144l-0.002-0.002c-8.995-8.293-14.61-20.135-14.61-33.288 0-6.312 1.293-12.323 3.629-17.78l-0.112 0.295c1.039-2.236 1.79-4.831 2.121-7.555l0.012-0.125c7.704-13.34 21.758-22.258 37.924-22.612l0.050-0.001h7.253c61.738 0 111.787-50.049 111.787-111.787s-50.049-111.787-111.787-111.787v0c-0.15 0.002-0.326 0.003-0.503 0.003-18.562 0-34.584-10.875-42.043-26.601l-0.12-0.282c-2.436-5.204-3.857-11.299-3.857-17.727 0-11.94 4.905-22.735 12.81-30.48l0.007-0.007c20.815-20.518 33.711-49.023 33.711-80.54 0-0.335-0.001-0.67-0.004-1.005v0.051c0-0.113 0.001-0.246 0.001-0.38 0-30.869-12.56-58.804-32.849-78.975l-0.005-0.005c-19.914-20.284-47.623-32.855-78.268-32.855-0.234 0-0.468 0.001-0.701 0.002h0.036c-0.092 0-0.201 0-0.309 0-30.757 0-58.579 12.565-78.613 32.843l-0.011 0.011c-7.785 11.337-20.677 18.677-35.283 18.677-23.564 0-42.667-19.103-42.667-42.667 0-1.77 0.108-3.515 0.317-5.229l-0.020 0.206v-7.253c0 0 0-0.001 0-0.001 0-61.738-50.049-111.787-111.787-111.787-0.15 0-0.3 0-0.45 0.001h0.023zM356.267 165.547c0.044 0 0.097 0 0.149 0 13.848 0 26.999-2.985 38.844-8.347l-0.593 0.24c36.381-13.991 61.753-48.605 61.867-89.159v-4.281c-0.136-1.5-0.213-3.245-0.213-5.008 0-32.519 26.361-58.88 58.88-58.88s58.88 26.361 58.88 58.88c0 1.763-0.077 3.507-0.229 5.231l0.016-0.223v7.253c0.762 53.613 44.402 96.781 98.124 96.781 26.341 0 50.257-10.378 67.884-27.268l-0.035 0.033c10.963-11.986 26.671-19.474 44.128-19.474 15.988 0 30.508 6.281 41.229 16.51l-0.024-0.022c10.533 10.698 17.037 25.389 17.037 41.6s-6.504 30.902-17.044 41.608l0.007-0.008c-18.719 17.766-30.365 42.828-30.365 70.61 0 14.125 3.011 27.548 8.425 39.66l-0.247-0.617c15 34.651 48.897 58.454 88.353 58.454 0.138 0 0.276 0 0.415-0.001h-0.021c0.893-0.048 1.939-0.075 2.992-0.075 32.716 0 59.289 26.302 59.728 58.914v0.041c0.001 0.127 0.002 0.277 0.002 0.427 0 32.283-26.17 58.453-58.453 58.453-0.001 0-0.001 0-0.002 0h-7.253c-0.117-0.001-0.255-0.001-0.393-0.001-39.456 0-73.353 23.803-88.113 57.833l-0.24 0.621c-1.205 2.494-1.975 5.405-2.131 8.479l-0.002 0.054c-3.966 10.174-6.264 21.952-6.264 34.267 0 26.36 10.531 50.261 27.615 67.724l-0.017-0.018s0 0 0 0v0c10.511 10.63 17.004 25.253 17.004 41.392 0 32.519-26.361 58.88-58.88 58.88-0.278 0-0.556-0.002-0.833-0.006h0.042c-0.408 0.010-0.889 0.016-1.372 0.016-16.123 0-30.721-6.527-41.296-17.084l0.001 0.001c-17.976-20.124-44.002-32.733-72.973-32.733-53.962 0-97.707 43.745-97.707 97.707 0 0.558 0.005 1.115 0.014 1.67l-0.001-0.084c0.2 1.834 0.314 3.961 0.314 6.115 0 30.091-22.25 54.985-51.195 59.128l-0.319 0.037c-32.519 0-58.88-26.361-58.88-58.88v0-7.253c0.001-0.117 0.001-0.255 0.001-0.393 0-39.456-23.803-73.353-57.833-88.113l-0.621-0.24c-1.283-0.258-2.757-0.406-4.267-0.406s-2.984 0.148-4.41 0.43l0.144-0.024c-10.174-3.966-21.952-6.264-34.267-6.264-26.36 0-50.261 10.531-67.724 27.615l0.018-0.017c-10.773 12.312-26.515 20.045-44.063 20.045-16.11 0-30.698-6.517-41.271-17.059l0.001 0.001c-10.533-10.698-17.037-25.389-17.037-41.6s6.504-30.902 17.044-41.608l-0.007 0.008c18.719-17.766 30.365-42.828 30.365-70.61 0-14.125-3.011-27.548-8.425-39.66l0.247 0.617c-13.898-36.023-47.822-61.307-87.774-62.291l-0.119-0.002h-5.12c-1.5 0.136-3.245 0.213-5.008 0.213-32.519 0-58.88-26.361-58.88-58.88s26.361-58.88 58.88-58.88c1.763 0 3.507 0.077 5.231 0.229l-0.223-0.016h7.253c0.405 0.006 0.884 0.010 1.363 0.010 53.962 0 97.707-43.745 97.707-97.707 0-27.428-11.302-52.217-29.503-69.963l-0.020-0.020c-11.818-10.585-19.41-25.68-20.050-42.556l-0.003-0.111c-0.010-0.408-0.016-0.889-0.016-1.372 0-16.123 6.527-30.721 17.084-41.296l-0.001 0.001c10.698-10.533 25.389-17.037 41.6-17.037s30.902 6.504 41.608 17.044l-0.008-0.007c18.233 18.296 43.396 29.675 71.217 29.866h0.037zM827.733 320v0z" />
<glyph unicode="&#xe916;" glyph-name="share" d="M768 303.787c-0.096 0-0.21 0-0.324 0-46.963 0-88.947-21.313-116.809-54.794l-0.199-0.247-250.027 145.92c6.216 15.83 9.819 34.161 9.819 53.333s-3.603 37.504-10.168 54.353l0.35-1.020 250.027 145.92c28.235-32.369 69.554-52.708 115.623-52.708 84.595 0 153.173 68.578 153.173 153.173s-68.578 153.173-153.173 153.173c-84.595 0-153.173-68.578-153.173-153.173 0-0.37 0.001-0.74 0.004-1.109v0.056c0.334-19.25 4.062-37.533 10.608-54.41l-0.368 1.077-250.027-145.92c-28.52 33.752-70.878 55.040-118.207 55.040-85.302 0-154.453-69.151-154.453-154.453s69.151-154.453 154.453-154.453c47.329 0 89.686 21.288 118.019 54.812l0.188 0.228 250.027-145.493c-6.135-15.931-9.858-34.354-10.237-53.597l-0.003-0.163c0-0.127-0.001-0.277-0.001-0.427 0-85.538 69.342-154.88 154.88-154.88s154.88 69.342 154.88 154.88c0 85.538-69.342 154.88-154.879 154.88v0zM768 848.213c56.083 0 101.547-45.464 101.547-101.547s-45.464-101.547-101.547-101.547c-56.083 0-101.547 45.464-101.547 101.547v0c0 56.083 45.464 101.547 101.547 101.547v0zM256 346.453c-0.127-0.001-0.277-0.001-0.427-0.001-56.083 0-101.547 45.464-101.547 101.547s45.464 101.547 101.547 101.547c56.082 0 101.546-45.463 101.547-101.546v0c-0.239-55.837-45.318-101.065-101.074-101.546h-0.046zM768 47.787c-55.985 0.241-101.305 45.561-101.547 101.523v0.023c0.643 18.988 6.606 36.462 16.436 51.126l-0.223-0.353c17.946 29.832 50.149 49.481 86.94 49.481 55.847 0 101.12-45.273 101.12-101.12s-45.273-101.12-101.12-101.12c-0.565 0-1.129 0.005-1.692 0.014l0.085-0.001z" />
<glyph unicode="&#xe917;" glyph-name="sun" d="M512 208.213c-132.431 0-239.787 107.356-239.787 239.787s107.356 239.787 239.787 239.787c132.431 0 239.787-107.356 239.787-239.787v0c-0.242-132.333-107.454-239.544-239.763-239.787h-0.023zM512 634.88c-0.127 0-0.277 0-0.427 0-103.211 0-186.88-83.669-186.88-186.88s83.669-186.88 186.88-186.88c103.211 0 186.88 83.669 186.88 186.88v0c-0.241 102.964-83.523 186.396-186.407 186.88h-0.046zM512 805.547c-0.127-0.002-0.277-0.003-0.427-0.003-14.61 0-26.453 11.844-26.453 26.453 0 0.001 0 0.002 0 0.004v0 85.333c1.737 13.32 13.013 23.5 26.667 23.5s24.93-10.18 26.652-23.365l0.014-0.136v-85.333c0-14.61-11.844-26.453-26.453-26.453v0zM512-47.787c-0.001 0-0.002 0-0.003 0-14.695 0-26.636 11.793-26.876 26.431v85.356c1.737 13.32 13.013 23.5 26.667 23.5s24.93-10.18 26.652-23.365l0.014-0.136v-85.333c0-14.61-11.844-26.453-26.453-26.453v0zM240.64 692.48c-7.369 0.132-13.993 3.21-18.768 8.101l-60.592 60.592c-4.805 4.805-7.776 11.442-7.776 18.773 0 14.663 11.887 26.55 26.55 26.55 7.331 0 13.969-2.972 18.773-7.776l60.587-60.587c4.935-4.744 8-11.401 8-18.773s-3.066-14.030-7.992-18.765l-0.009-0.008c-4.78-4.897-11.405-7.974-18.749-8.106h-0.025zM843.947 89.173c-7.369 0.132-13.993 3.21-18.768 8.101l-60.592 60.592c-4.805 4.805-7.776 11.442-7.776 18.773 0 14.663 11.887 26.55 26.55 26.55 7.331 0 13.969-2.972 18.773-7.776l60.587-60.587c4.935-4.744 8-11.401 8-18.773s-3.066-14.030-7.992-18.765l-0.009-0.008c-4.78-4.897-11.405-7.974-18.749-8.106h-0.025zM128 421.547h-85.333c-14.61 0-26.453 11.844-26.453 26.453s11.844 26.453 26.453 26.453h85.333c14.61 0 26.453-11.844 26.453-26.453s-11.844-26.453-26.453-26.453v0zM981.333 421.547h-85.333c-14.61 0-26.453 11.844-26.453 26.453s11.844 26.453 26.453 26.453h85.333c14.61 0 26.453-11.844 26.453-26.453s-11.844-26.453-26.453-26.453v0zM180.053 89.173c-7.369 0.132-13.993 3.21-18.768 8.101l-0.005 0.005c-4.935 4.744-8 11.401-8 18.773s3.066 14.030 7.992 18.765l0.009 0.008 60.587 60.587c4.805 4.805 11.442 7.776 18.773 7.776 14.663 0 26.55-11.887 26.55-26.55 0-7.331-2.972-13.969-7.776-18.773l-60.587-60.587c-4.78-4.897-11.405-7.974-18.749-8.106h-0.025zM783.36 692.48c-7.369 0.132-13.993 3.21-18.768 8.101l-0.005 0.005c-4.935 4.744-8 11.401-8 18.773s3.066 14.030 7.992 18.765l0.009 0.008 60.587 60.587c4.805 4.805 11.442 7.776 18.773 7.776 14.663 0 26.55-11.887 26.55-26.55 0-7.331-2.972-13.969-7.776-18.773l-60.587-60.587c-4.78-4.897-11.405-7.974-18.749-8.106h-0.025z" />
<glyph unicode="&#xe918;" glyph-name="support" d="M833.28 128.427c81.757 81.958 132.312 195.075 132.312 320s-50.554 238.042-132.321 320.009l0.009-0.009c-81.911 81.86-195.043 132.488-320 132.488s-238.089-50.628-320.002-132.49l0.002 0.002s0 0 0 0c-82.066-81.817-132.843-194.979-132.843-320s50.776-238.183 132.831-319.989l0.011-0.011s0 0 0 0v0c81.958-81.757 195.075-132.312 320-132.312s238.042 50.554 320.009 132.321l-0.009-0.009s0 0 0 0-0.427-0.427 0 0zM812.8 185.173l-144.213 144.213c25.298 32.413 40.562 73.731 40.562 118.613s-15.265 86.2-40.886 119.044l0.324-0.431 133.547 133.973 10.667 10.24c61.452-69.77 98.957-161.918 98.957-262.827s-37.505-193.057-99.337-263.266l0.379 0.439zM367.787 448c0 79.647 64.567 144.213 144.213 144.213s144.213-64.567 144.213-144.213c0-79.647-64.567-144.213-144.213-144.213v0c-79.549 0.242-143.972 64.664-144.213 144.19v0.023zM774.827 746.667l-144.213-142.080c-32.413 25.298-73.731 40.562-118.613 40.562s-86.2-15.265-119.044-40.886l0.431 0.324-144.213 142.080c69.668 61.703 161.847 99.382 262.827 99.382s193.159-37.68 263.245-99.746l-0.418 0.363zM213.333 710.827l142.080-144.213c-25.502-32.34-40.905-73.678-40.905-118.613s15.402-86.274 41.216-119.023l-0.311 0.409-142.080-144.213c-61.703 69.668-99.382 161.847-99.382 262.827s37.68 193.159 99.746 263.245l-0.363-0.418zM251.307 147.2l144.213 144.213c32.413-25.298 73.731-40.562 118.613-40.562s86.2 15.265 119.044 40.886l-0.431-0.324 144.213-144.213c-69.668-61.703-161.847-99.382-262.827-99.382s-193.159 37.68-263.245 99.746l0.418-0.363z" />
</font>
</defs>
</svg>
