<svg id="Layer_1" data-name="Layer 1" xmlns="http://www.w3.org/2000/svg" viewBox="0 0 336 180">
  <rect id="Rectangle_131" data-name="Rectangle 131" width="336" height="180" style="fill: #5863d7"/>
  <path id="Path_1371" data-name="Path 1371" d="M54,30.16a.84.84,0,0,0,.54.75,8.17,8.17,0,0,0,1.27.5l1.53.47a2.7,2.7,0,0,1,1.31.89,2.77,2.77,0,0,1-.55,3.81,4.32,4.32,0,0,1-2.67.79,4.7,4.7,0,0,1-2.44-.6,3.45,3.45,0,0,1-1.48-1.65l1.78-1a2,2,0,0,0,2.14,1.38c1.08,0,1.63-.35,1.63-1.07a.85.85,0,0,0-.53-.75,7.37,7.37,0,0,0-1.27-.52l-1.53-.47a2.69,2.69,0,0,1-1.31-.86,2.41,2.41,0,0,1-.53-1.59,2.61,2.61,0,0,1,1-2.13,3.85,3.85,0,0,1,2.51-.8,4.24,4.24,0,0,1,2.12.52,3.61,3.61,0,0,1,1.43,1.47l-1.75,1a2.06,2.06,0,0,0-2.77-.86l0,0A.84.84,0,0,0,54,30.16Z" style="fill: #e9eaf3"/>
  <path id="Path_1372" data-name="Path 1372" d="M66.39,27.28a4.52,4.52,0,0,1,3.38,1.46,5.3,5.3,0,0,1,0,7.18,4.56,4.56,0,0,1-3.38,1.46A3.89,3.89,0,0,1,63,35.76V41H61V27.52H63v1.39A3.87,3.87,0,0,1,66.39,27.28Zm-2.5,7.24a3.12,3.12,0,0,0,4.34,0,3.24,3.24,0,0,0,0-4.4,3.14,3.14,0,0,0-4.34,0A3.22,3.22,0,0,0,63.89,34.52Z" style="fill: #e9eaf3"/>
  <path id="Path_1373" data-name="Path 1373" d="M80.65,27.52h2.08v9.6H80.65V35.74a3.87,3.87,0,0,1-3.36,1.63,4.5,4.5,0,0,1-3.38-1.47,5.28,5.28,0,0,1,0-7.17,4.56,4.56,0,0,1,3.38-1.46,3.9,3.9,0,0,1,3.36,1.62Zm-5.2,7a3.12,3.12,0,0,0,4.34,0,3.24,3.24,0,0,0,0-4.4,3.14,3.14,0,0,0-4.34,0A3.24,3.24,0,0,0,75.45,34.52Z" style="fill: #e9eaf3"/>
  <path id="Path_1374" data-name="Path 1374" d="M89.68,37.38a5.05,5.05,0,1,1,0-10.1h0a5,5,0,0,1,2.55.67A4.35,4.35,0,0,1,94,29.75l-1.79,1a2.44,2.44,0,0,0-1-1.08,3,3,0,0,0-1.53-.39,2.84,2.84,0,0,0-2.12.86,3.13,3.13,0,0,0,0,4.3,2.84,2.84,0,0,0,2.12.86,3,3,0,0,0,1.53-.4,2.63,2.63,0,0,0,1-1.07l1.79,1a4.62,4.62,0,0,1-1.77,1.82A5.07,5.07,0,0,1,89.68,37.38Z" style="fill: #e9eaf3"/>
  <path id="Path_1375" data-name="Path 1375" d="M97,33.21A2.62,2.62,0,0,0,98,34.89a3.36,3.36,0,0,0,2,.58,2.79,2.79,0,0,0,2.47-1.19l1.71,1a4.75,4.75,0,0,1-4.2,2.1A5.15,5.15,0,0,1,96.25,36a5.05,5.05,0,0,1,3.63-8.67,4.47,4.47,0,0,1,3.46,1.48,5.11,5.11,0,0,1,1.36,3.59,8.33,8.33,0,0,1-.08.86Zm0-1.69h5.65a2.67,2.67,0,0,0-2.75-2.36,2.92,2.92,0,0,0-1.92.63A2.86,2.86,0,0,0,97,31.52Z" style="fill: #e9eaf3"/>
  <path id="Path_1376" data-name="Path 1376" d="M114.06,23.69h2.08V37.13h-2.08V35.74a3.88,3.88,0,0,1-3.36,1.64,4.52,4.52,0,0,1-3.38-1.47,5.28,5.28,0,0,1,0-7.17,4.55,4.55,0,0,1,3.38-1.46,3.9,3.9,0,0,1,3.36,1.61Zm-5.2,10.83a3.12,3.12,0,0,0,4.34,0,3.24,3.24,0,0,0,0-4.4,3.14,3.14,0,0,0-4.34,0A3.24,3.24,0,0,0,108.86,34.52Z" style="fill: #e9eaf3"/>
  <path id="Path_1377" data-name="Path 1377" d="M126.16,27.52h2.07v9.6h-2.07V35.74a3.89,3.89,0,0,1-3.36,1.63,4.47,4.47,0,0,1-3.38-1.47,5.28,5.28,0,0,1,0-7.17,4.55,4.55,0,0,1,3.38-1.46,3.91,3.91,0,0,1,3.36,1.62Zm-5.2,7a3.12,3.12,0,0,0,4.34,0,3.24,3.24,0,0,0,0-4.4,3.14,3.14,0,0,0-4.34,0A3.22,3.22,0,0,0,121,34.52Z" style="fill: #e9eaf3"/>
  <path id="Path_1378" data-name="Path 1378" d="M141.71,27.53h2.19l-3,9.6h-2l-2-6.56-2,6.56h-2.2l-2.79-9.6H132l1.86,6.62,2-6.62h2l2,6.62Z" style="fill: #e9eaf3"/>
  <path id="Path_1379" data-name="Path 1379" d="M152.69,27.52h2v9.16A4.1,4.1,0,0,1,153.29,40a5.35,5.35,0,0,1-3.5,1.17q-3.31,0-4.55-2.32l1.79-1a2.84,2.84,0,0,0,2.8,1.48,3,3,0,0,0,2.1-.7,2.54,2.54,0,0,0,.76-2V35.51a3.84,3.84,0,0,1-3.34,1.67,4.57,4.57,0,0,1-3.44-1.45,5.09,5.09,0,0,1,0-7,4.57,4.57,0,0,1,3.44-1.45A3.83,3.83,0,0,1,152.69,29Zm-5.23,6.86a3.19,3.19,0,0,0,4.36,0,3.09,3.09,0,0,0,0-4.3,3.19,3.19,0,0,0-4.36,0A3.09,3.09,0,0,0,147.46,34.38Z" style="fill: #e9eaf3"/>
  <path id="Path_1380" data-name="Path 1380" d="M159,30.16a.83.83,0,0,0,.53.75,8.17,8.17,0,0,0,1.27.5l1.53.47a2.7,2.7,0,0,1,1.31.89,2.79,2.79,0,0,1-.55,3.82,4.39,4.39,0,0,1-2.67.79,4.82,4.82,0,0,1-2.44-.6,3.51,3.51,0,0,1-1.48-1.66l1.79-1a2,2,0,0,0,2.13,1.38c1.08,0,1.63-.36,1.63-1.08a.86.86,0,0,0-.53-.75,7.33,7.33,0,0,0-1.27-.51l-1.53-.47a2.78,2.78,0,0,1-1.31-.87,2.38,2.38,0,0,1-.53-1.58,2.61,2.61,0,0,1,1-2.13,3.86,3.86,0,0,1,2.51-.81,4.25,4.25,0,0,1,2.12.53,3.55,3.55,0,0,1,1.43,1.47l-1.75,1a2,2,0,0,0-2.76-.86l0,0A.81.81,0,0,0,159,30.16Z" style="fill: #e9eaf3"/>
  <path id="Path_1381" data-name="Path 1381" d="M42.19,26.07a15.07,15.07,0,0,0-2.56-4.83l0,0c-.11-.15-.23-.29-.36-.44l0,0c-.11-.14-.23-.26-.34-.39l0-.07-.05,0-.37-.38c-.19-.19-.4-.39-.64-.59a7.41,7.41,0,0,0-.58-.48l-.32-.25-.33-.24-.33-.23-.1-.06-.24-.15a10.93,10.93,0,0,0-1.1-.6l-.32-.16L34.07,17l-.06,0-.22-.09-.33-.14-.12,0a3.7,3.7,0,0,0-.4-.13l-.18-.06-.2-.06-.26-.08A2.39,2.39,0,0,0,29.91,14H28.05a2.39,2.39,0,0,0-2.39,2.26,14.69,14.69,0,0,0-10.2,9.91,3.22,3.22,0,0,0-2,3v1.17h-.12l0,0c-.09,0-.15.19-.25.23s-.27,0-.38.05-.13.23-.23.3-.27,0-.36.12-.09.25-.18.34-.26.08-.33.17,0,.27-.12.36-.24.13-.31.23,0,.27-.06.37-.23.16-.28.27,0,.27,0,.38-.2.18-.24.3.06.26,0,.38-.18.2-.21.32.08.25.07.37-.17.22-.18.34.11.25.1.37-.13.23-.13.35.13.33.14.49-.09.34-.06.5.19.3.22.46,0,.36,0,.51.24.26.3.41,0,.36.1.5.28.22.37.36.08.35.18.47.31.18.42.3.13.32.25.44.33.12.46.22.19.3.33.39.35.06.49.14.24.27.39.34.35,0,.5.06.28.22.44.26.35-.05.51,0a.5.5,0,0,1,.2.08,1.11,1.11,0,0,0,.34.72c3.1,3.05,7.72,4.73,13,4.73s9.77-1.63,12.86-4.58a1.27,1.27,0,0,0,.05-1.81,1.25,1.25,0,0,0-.59-.36,4.33,4.33,0,0,0,.15-1.13,3.31,3.31,0,0,0-.05-.55c.23-.3.44-.6.64-.9a1.28,1.28,0,0,0-.27-1.7l.24-.51a3.22,3.22,0,0,0,2.69-3.16v-3.1A3.22,3.22,0,0,0,42.19,26.07Zm-27.11,14c-.13,0-.29.06-.4,0s-.2-.21-.32-.27-.29,0-.4-.05-.16-.24-.26-.31-.29,0-.39-.12-.12-.26-.21-.35-.28-.08-.37-.18-.07-.27-.15-.37-.26-.14-.33-.24,0-.29-.08-.4-.24-.17-.29-.29,0-.29,0-.41-.2-.21-.24-.33.07-.28.05-.4-.16-.24-.17-.37.11-.26.11-.39-.13-.18-.13-.27.14-.17.15-.26-.1-.19-.1-.28.16-.15.18-.24-.09-.2-.07-.29.17-.13.2-.22-.07-.21-.05-.29.19-.12.22-.2,0-.22,0-.3.2-.1.24-.18,0-.22,0-.3.2-.07.26-.14,0-.22.07-.29.21,0,.27-.1S12.92,32,13,32s.2,0,.28,0h0c.08-.05.09-.2.17-.24v1a3.24,3.24,0,0,0,2.38,2.71l.19.41a1.3,1.3,0,0,0-.36,1.75c.16.26.33.5.5.73a6.28,6.28,0,0,0-.12,2,.48.48,0,0,0-.21-.09c-.13,0-.28.1-.4.08S15.2,40.09,15.08,40.06Z" style="fill: #e9eaf3;stroke: #e9eaf3;stroke-miterlimit: 10;stroke-width: 2px"/>
  <path id="full-helmet-base" d="M15.75,41.15c4.4,7.16,19.75,6.77,25.33.91a.89.89,0,0,0-.8-1.51,3.53,3.53,0,0,0,.22-2.13c.56-.62,1.45-1.85.25-2.32a8.61,8.61,0,0,0,.5-1,2.79,2.79,0,0,0,2.55-2.78c0-2.09.56-5.25-2.22-5.8a14.76,14.76,0,0,0-3.3-5.76h0a13.44,13.44,0,0,0-6.59-3.92,2,2,0,0,0-1.78-2.22h-.2c-1.73-.06-3.85-.2-3.83,2.16A14.12,14.12,0,0,0,15.7,26.58c-1.89.59-2,2.41-1.94,4.12-.08,1.93,0,3.84,2.27,4.35a8,8,0,0,0,.45.93c-1.19.33-.57,1.57,0,2.18a4.87,4.87,0,0,0-.08,2.34C15.91,40.5,15.75,41.15,15.75,41.15Z" style="fill: #e9eaf3"/>
  <path id="neck-shadow" d="M40.49,40.65a.72.72,0,0,0-.29.06,6.14,6.14,0,0,0,.12-2.26,12.45,12.45,0,0,0,.81-1.1.82.82,0,0,0,.1-.57.77.77,0,0,0-.91-.58.74.74,0,0,0-.48.33c-2.11,3.3-6.21,5.19-11.23,5.19a17.47,17.47,0,0,1-4.77-.64.81.81,0,0,1,.44.7.84.84,0,0,1-.73.8l.11,0a2,2,0,0,0-.54,1.5l-.13,0a.83.83,0,0,1,.17,1.16.87.87,0,0,1-.53.32,21.27,21.27,0,0,0,6,.81c5,0,9.42-1.56,12.39-4.39a.77.77,0,0,0,0-1.08.75.75,0,0,0-.55-.23Z" style="fill: #b8b0d5"/>
  <path id="left-ear" d="M40.22,27.24h0A2.78,2.78,0,0,1,43,30v1.55a2.77,2.77,0,0,1-2.77,2.78h0a2.77,2.77,0,0,1-2.78-2.78V30A2.78,2.78,0,0,1,40.22,27.24Z" style="fill: #b8b0d5"/>
  <rect id="right-ear" x="14.5" y="27.24" width="4.68" height="7.11" rx="2.34" style="fill: #e9eaf3"/>
  <path id="base-head" d="M41.35,30.5c0-7-5.7-13.25-12.74-13.25S15.88,23.47,15.88,30.5s5.7,10.93,12.73,10.93S41.35,37.53,41.35,30.5Z" style="fill: #b8b0d5"/>
  <path id="main-light" d="M38.84,24.49a17.65,17.65,0,0,0-.11-1.92,12.62,12.62,0,0,0-10.12-5.32c-7,0-12.73,6.22-12.73,13.25a10.17,10.17,0,0,0,6.66,9.81c.34,0,.69,0,1,0C32,40.35,38.84,33.25,38.84,24.49Z" style="fill: #e9eaf3"/>
  <path id="outer-light-ring" d="M28.61,17.51c6.77,0,12.48,5.95,12.48,13a9.79,9.79,0,0,1-3.63,7.9,15.52,15.52,0,0,1-17.69,0,9.79,9.79,0,0,1-3.63-7.9c0-7,5.71-13,12.47-13m0-.26c-7,0-12.73,6.22-12.73,13.25s5.7,10.93,12.73,10.93,12.74-3.9,12.74-10.93-5.7-13.25-12.74-13.25Z" style="fill: #e9eaf3"/>
  <path id="upper-shadow" d="M32.13,18.76a2.19,2.19,0,0,1,1.74-.33l-.14-.07-.33-.15-.27-.11-.42-.16-.35-.12L32,17.71l-.23-.06-.25-.07-.24-.06h-.07c0,.81.08,1.62.13,2.44A2.12,2.12,0,0,1,32.13,18.76Z" style="fill: #b8b0d5"/>
  <path id="Path_1382" data-name="Path 1382" d="M23.06,23.7l.52-.2m.7-.23a15.54,15.54,0,0,1,4.34-.62,14.08,14.08,0,0,1,8.08,2.42" style="fill: none;stroke: #251a57;stroke-linecap: round;stroke-miterlimit: 10;stroke-width: 0.25px"/>
  <path id="Path_1383" data-name="Path 1383" d="M41.87,26.18a14.89,14.89,0,0,0-3.28-5.65l0-.07,0,0a13.86,13.86,0,0,0-6.43-3.9,2.37,2.37,0,0,0-2.37-2.32H27.86a2.38,2.38,0,0,0-2.37,2.25,14.53,14.53,0,0,0-10.1,9.82,3.15,3.15,0,0,0-2,3v1.47l0,1.95v0a3.23,3.23,0,0,0,2.35,2.69l.19.41a1.28,1.28,0,0,0-.35,1.73,8.22,8.22,0,0,0,.49.72,4.92,4.92,0,0,0,0,2.35.54.54,0,0,0-.18.19.4.4,0,0,0-.49.25.38.38,0,0,0,0,.15h0a1.16,1.16,0,0,0,.33,1c5.81,6.16,19.74,6.21,25.65.15a1.28,1.28,0,0,0,0-1.81,1.3,1.3,0,0,0-.56-.34,4.1,4.1,0,0,0,.1-1.67c.63-.8,1.32-1.72.36-2.58l.24-.5a3.2,3.2,0,0,0,2.67-3.13V29.24A3.2,3.2,0,0,0,41.87,26.18ZM16.19,40.81a.39.39,0,0,0,.54-.09l0,0c5.41,5.5,17.81,5.81,23.33.25l.2-.1a.6.6,0,0,1,.65.53.65.65,0,0,1-.13.43c-5.62,5.78-19.06,5.73-24.58-.13-.23-.23,0-.43-.17-.7A.41.41,0,0,1,16.19,40.81Zm24-1.74a3.85,3.85,0,0,1-.29,1.68c-5.81,5.57-17.42,5.1-23.1-.34a4,4,0,0,1,0-1.89c4.71,6.3,18.42,6.42,23.36.3,0,.08,0,.17,0,.25ZM16.74,38a9,9,0,0,1-.56-.81.6.6,0,0,1,.31-.81l.06,0,.14,0c4.63,7.83,19.23,7.79,23.87.11a.63.63,0,0,1,.45.79.76.76,0,0,1,0,.11C36.51,44.8,21.65,45,16.74,38Zm10-20.6v-.9a1,1,0,0,1,1-1h2a1,1,0,0,1,1,1v3.41a.27.27,0,0,0,.28.28.28.28,0,0,0,.28-.28V17.57c9.9,2.08,14.28,17.24,4.42,22.23a16.77,16.77,0,0,1-13.18.48c-5.41-2.16-7.67-7.4-6.25-13h0a13.22,13.22,0,0,1,9.8-9.72v2.54a.28.28,0,0,0,.28.28.29.29,0,0,0,.28-.28ZM16,27.3a12.45,12.45,0,0,0,.24,7,2,2,0,0,1-1.71-2V29.23A2,2,0,0,1,16,27.3Zm27,5a2,2,0,0,1-2,2h0a12.53,12.53,0,0,0,.24-7.1,2,2,0,0,1,1.84,2Z" style="fill: #251a57"/>
  <path id="right-indent" d="M21.68,22.72a2.15,2.15,0,0,0,.7.12,2.94,2.94,0,0,0,.51-.05,4.75,4.75,0,0,0,.64-.2A8.42,8.42,0,0,1,25,22.18a.12.12,0,0,0,.1-.15.12.12,0,0,0-.14-.1,8.37,8.37,0,0,0-1.54.42,5.26,5.26,0,0,1-.6.18,2.05,2.05,0,0,1-1.07-.05,2.21,2.21,0,0,1-1.28-1.21.12.12,0,0,0-.17-.07.14.14,0,0,0-.07.17h0A2.47,2.47,0,0,0,21.68,22.72Z" style="fill: #251a57"/>
  <path id="left-indent" d="M32.47,22.19a8,8,0,0,1,1.49.4,4.75,4.75,0,0,0,.64.2,2.07,2.07,0,0,0,.5.05,1.84,1.84,0,0,0,.7-.11,2.5,2.5,0,0,0,1.43-1.35.14.14,0,0,0,0-.18.13.13,0,0,0-.18.06v0a2.19,2.19,0,0,1-1.28,1.2,2,2,0,0,1-1.08.06,4.62,4.62,0,0,1-.6-.19,9,9,0,0,0-1.54-.41.13.13,0,0,0,0,.25Z" style="fill: #251a57"/>
  <path id="air-tube" d="M18.67,40.93c0,.35-.06.67-.34.67h-.17a2.75,2.75,0,0,0-.6-.12c-.36,0-.36.12-.72.12s-.36-.12-.72-.12c-.16,0-.33.12-.49.1s-.31-.16-.47-.18-.35.06-.51,0-.27-.21-.43-.26-.35,0-.5-.06-.24-.25-.38-.33-.35-.05-.48-.14-.2-.29-.33-.39-.34-.11-.45-.22-.15-.32-.26-.44-.31-.16-.41-.29-.09-.33-.18-.47-.28-.21-.36-.35,0-.35-.1-.5-.25-.25-.3-.41,0-.35,0-.5-.2-.29-.23-.45.08-.34.07-.5-.15-.32-.15-.49.13-.23.14-.35-.11-.24-.1-.36.15-.22.17-.34-.08-.25-.06-.37.18-.2.21-.31-.06-.27,0-.38.2-.18.24-.29,0-.27,0-.38.22-.15.27-.26,0-.27.07-.37.23-.13.3-.22,0-.27.12-.36.25-.09.33-.18.08-.25.17-.33.26-.05.36-.12.13-.24.23-.3.27,0,.38-.05.15-.18.25-.23l0,0a.67.67,0,0,1,.28,0,1.76,1.76,0,0,1,.07.4,2.15,2.15,0,0,1-.1.91h-.11c-.08,0-.1.2-.17.24h0c-.08,0-.2,0-.27,0s-.05.21-.12.27-.21,0-.27.1,0,.21-.07.28-.21.07-.26.15,0,.21,0,.29-.2.1-.24.17,0,.21,0,.3-.19.11-.22.2.07.2,0,.29-.17.13-.2.22.09.2.07.28-.15.16-.17.24.1.19.1.28-.14.17-.14.25.12.18.12.27-.12.26-.11.39.15.24.17.36-.08.28,0,.4.2.21.24.33,0,.29,0,.4.22.18.28.29,0,.29.09.4.24.13.32.24.07.28.15.37.27.1.36.18.11.27.21.35.28,0,.39.11.15.25.26.31.28,0,.4,0,.19.22.31.26.28,0,.4,0,.23.18.35.2.27-.09.4-.08.25.14.38.14c.36,0,.36-.13.72-.13s.35.13.71.13a1.2,1.2,0,0,0,.42-.08l.06,0h.06l.14,0C18.42,40.19,18.67,40.58,18.67,40.93Z" style="fill: #122632"/>
  <path id="visor-base" d="M39.44,31.19c0,3.72-2.7,3.71-6.33-.15-1.56-1.66-2.91-2.28-4.5-2.28s-2.29.61-3.86,2.28c-3.64,3.88-7,3.87-7,.15,0-4.24,4.84-7.67,10.82-7.67S39.44,27,39.44,31.19Z" style="fill: #be81b7"/>
  <path id="visor-shade" d="M39.44,31.19a5.84,5.84,0,0,0-1-3.18c-.06,2.4-.8,4.43-2.32,5.5l0,0C38.15,34.55,39.44,33.76,39.44,31.19Z" style="fill: #995ba4"/>
  <path id="right-lip" d="M25.07,33.37a2.18,2.18,0,0,0,1.52.73,2.41,2.41,0,0,0,2.21-2" style="fill: none;stroke: #122632;stroke-linecap: round;stroke-miterlimit: 10;stroke-width: 0.4099999964237213px"/>
  <path id="left-lip" d="M32.49,33.37A2.2,2.2,0,0,1,31,34.1a2.41,2.41,0,0,1-2.21-2" style="fill: none;stroke: #122632;stroke-linecap: round;stroke-miterlimit: 10;stroke-width: 0.4099999964237213px"/>
  <path id="nose" d="M30.19,31.57c0,.38-.63.86-1.42.86s-1.42-.48-1.42-.86.63-.69,1.42-.69S30.19,31.19,30.19,31.57Z" style="fill: #122632"/>
  <ellipse id="right-cheek" cx="21.4" cy="31.83" rx="1.11" ry="0.65" style="fill: #712672"/>
  <ellipse id="left-cheek" cx="35.83" cy="31.83" rx="1.11" ry="0.65" style="fill: #712672"/>
  <circle id="large-reflection" cx="22.02" cy="27.08" r="1.28" style="fill: #e9eaf3"/>
  <ellipse id="left-eye" cx="34.15" cy="28.86" rx="1.75" ry="2.09" style="fill: #122632"/>
  <ellipse id="right-eye" cx="23.77" cy="28.86" rx="1.75" ry="2.09" style="fill: #122632"/>
  <path id="eye-reflection" d="M22.07,28.36a1.26,1.26,0,0,0,1.23-1.3,1.49,1.49,0,0,0,0-.21A2,2,0,0,0,22.07,28.36Z" style="fill: #415a68"/>
  <circle id="small-reflection" cx="20.68" cy="29.03" r="0.44" style="fill: #e9eaf3"/>
  <path d="M28.62,39.57c-5.82,0-10.55-3.54-10.55-7.9s4.73-7.9,10.55-7.9,10.56,3.55,10.56,7.9S34.44,39.57,28.62,39.57Z" style="fill: none"/>
  <path d="M28.62,39.57c5.82,0,10.56-3.54,10.56-7.89s-4.74-7.9-10.56-7.9-10.55,3.55-10.55,7.9,4.73,7.89,10.55,7.89m0,.5a13,13,0,0,1-7.76-2.41,7.5,7.5,0,0,1-3.29-6,7.5,7.5,0,0,1,3.29-6,13,13,0,0,1,7.76-2.42,13,13,0,0,1,7.76,2.42,7.51,7.51,0,0,1,3.3,6,7.51,7.51,0,0,1-3.3,6A13,13,0,0,1,28.62,40.07Z" style="fill: #251a57"/>
  <path d="M224.82,98.8c-22.19,1.91-17.94,22.27-24,36,13.69-6.09,34.05-1.84,36-24" style="fill: none;stroke: #fff;stroke-linecap: round;stroke-linejoin: round;stroke-width: 0.75px"/>
  <path d="M242.34,103c10.07-2.71,26.51-13.18,37.3-24C298.9,59.75,299,36.33,299,36.33s-23.42.09-42.68,19.35c-10.79,10.79-21.26,27.23-24,37.31Z" style="fill: none;stroke: #fff;stroke-linecap: round;stroke-linejoin: round;stroke-width: 0.75px"/>
  <polyline points="242.22 73.17 214.77 73.89 208.91 89.55 219.41 86.72 232.34 92.98" style="fill: none;stroke: #fff;stroke-linecap: round;stroke-linejoin: round;stroke-width: 0.75px"/>
  <polyline points="262.14 93.1 261.43 120.55 245.77 126.41 248.6 115.91 242.34 102.98" style="fill: none;stroke: #fff;stroke-linecap: round;stroke-linejoin: round;stroke-width: 0.75px"/>
  <line x1="249" y1="86.32" x2="229" y2="106.32" style="fill: none;stroke: #fff;stroke-linecap: round;stroke-linejoin: round;stroke-width: 0.75px"/>
  <path d="M228.15,35.49,214.38,49.25a6.42,6.42,0,0,1-9.07,0h0a6.44,6.44,0,0,1,0-9.07l13.76-13.76" style="fill: none;stroke: #7683e2;stroke-miterlimit: 10"/>
  <line x1="214.47" y1="26.93" x2="220.57" y2="20.83" style="fill: none;stroke: #7683e2;stroke-miterlimit: 10"/>
  <line x1="219.58" y1="29.86" x2="223.5" y2="25.94" style="fill: none;stroke: #7683e2;stroke-miterlimit: 10"/>
  <line x1="217.37" y1="36.22" x2="232.68" y2="20.91" style="fill: none;stroke: #7683e2;stroke-miterlimit: 10"/>
  <line x1="228.15" y1="31.06" x2="234.1" y2="25.1" style="fill: none;stroke: #7683e2;stroke-miterlimit: 10"/>
  <line x1="223.99" y1="43.74" x2="227.82" y2="39.91" style="fill: none;stroke: #7683e2;stroke-miterlimit: 10"/>
  <line x1="211.67" y1="37.22" x2="212.94" y2="35.94" style="fill: none;stroke: #7683e2;stroke-miterlimit: 10"/>
  <line x1="217.26" y1="41.74" x2="222.37" y2="36.62" style="fill: none;stroke: #7683e2;stroke-miterlimit: 10"/>
  <path d="M208,40.42a4.63,4.63,0,0,1,6.22,6.11" style="fill: none;stroke: #7683e2;stroke-miterlimit: 10"/>
  <path d="M36.92,112.47a7.7,7.7,0,0,1-.5-2.27,7.41,7.41,0,1,1,1.79,4.4" style="fill: none;stroke: #7683e2;stroke-miterlimit: 10"/>
  <path d="M41.41,117.56c-2.11,1.38-3.79,1.71-4.72,1s-.94-2.35-.13-4.54a25.09,25.09,0,0,1,4.1-6.8c3.19-3.91,6.7-6.43,8.9-6.56A2,2,0,0,1,51,101c1,.81.94,2.64-.12,5.17" style="fill: none;stroke: #7683e2;stroke-miterlimit: 10"/>
  <path d="M39,113.81a25.49,25.49,0,0,1,3.32-5.15,26.19,26.19,0,0,1,4.14-4.11" style="fill: none;stroke: #7683e2;stroke-miterlimit: 10"/>
  <path d="M154.74,57.09a2,2,0,0,0,2,2,2,2,0,0,0-2,2,2,2,0,0,0-2-2,2,2,0,0,0,2-2" style="fill: none;stroke: #7683e2;stroke-linecap: round;stroke-linejoin: round"/>
  <path d="M183.65,126.41a2,2,0,0,0,2,2,2,2,0,0,0-2,2,2,2,0,0,0-2-2,2,2,0,0,0,2-2" style="fill: none;stroke: #7683e2;stroke-linecap: round;stroke-linejoin: round"/>
  <path d="M308.29,84.32a2,2,0,0,0,2,2,2,2,0,0,0-2,2,2,2,0,0,0-2-2,2,2,0,0,0,2-2" style="fill: none;stroke: #7683e2;stroke-linecap: round;stroke-linejoin: round"/>
  <path d="M24.28,80.32a2,2,0,0,0,2,2,2,2,0,0,0-2,2,2,2,0,0,0-2-2,2,2,0,0,0,2-2" style="fill: none;stroke: #7683e2;stroke-linecap: round;stroke-linejoin: round"/>
  <path d="M269,76.32a7.07,7.07,0,1,1,0-10A7.11,7.11,0,0,1,269,76.32Z" style="fill: none;stroke: #fff;stroke-linecap: round;stroke-linejoin: round;stroke-width: 0.75px"/>
</svg>
