<svg id="Layer_1" data-name="Layer 1" xmlns="http://www.w3.org/2000/svg" viewBox="0 0 336 180">
  <rect id="shape" x="-2.59" y="-1.74" width="341.19" height="189.96" style="fill: #e5e1e6"/>
  <path id="shape-2" data-name="shape" d="M109.47,93.24a165.72,165.72,0,0,0,29.76,95H338.59v-190H139.23A165.72,165.72,0,0,0,109.47,93.24Z" style="fill: #dcdae9"/>
  <g id="tap-it">
    <path d="M308.56,92.65a10.08,10.08,0,0,1-13.42,9.51l-.05,0a.49.49,0,0,1-.28-.25.55.55,0,0,1,0-.38.54.54,0,0,1,.67-.3,9.07,9.07,0,1,0,0-17.12.51.51,0,0,1-.66-.67.46.46,0,0,1,.28-.25l.05,0a10.07,10.07,0,0,1,13.42,9.5Zm-12.39,5.4a.55.55,0,0,0,0,.42.52.52,0,0,0,.32.28,6.47,6.47,0,0,0,2,.32,6.21,6.21,0,0,0,2.29-.43,6.39,6.39,0,0,0,4.12-6v-.19h0a6.56,6.56,0,0,0-.55-2.45,6.42,6.42,0,0,0-7.88-3.48.53.53,0,0,0-.3.27.48.48,0,0,0,0,.39.49.49,0,0,0,.62.29,5.51,5.51,0,0,1,3.65.08,5.37,5.37,0,0,1,3,2.86,5.25,5.25,0,0,1,.47,2.16v0a5.29,5.29,0,0,1-.47,2.21,5.35,5.35,0,0,1-3,2.85,5.47,5.47,0,0,1-3.68.08A.46.46,0,0,0,296.17,98.05Zm2.94-3.75a1.71,1.71,0,0,1-1.05.06.45.45,0,0,0-.54.27h0a.49.49,0,0,0,0,.44.5.5,0,0,0,.36.27,2.76,2.76,0,0,0,1.56-5.27,2.7,2.7,0,0,0-1.66-.1.45.45,0,0,0-.3.24.46.46,0,0,0,0,.38v0a.53.53,0,0,0,.6.32,1.66,1.66,0,0,1,1,.07,1.76,1.76,0,0,1,0,3.29Z" style="fill: #490e67"/>
  </g>
  <g id="saturn">
    <g id="planet">
      <path d="M37.68,88.32a7.33,7.33,0,1,1,5.83-11.77.23.23,0,0,1,0,.32.23.23,0,0,1-.32,0,6.81,6.81,0,0,0-5.46-2.7,6.87,6.87,0,1,0,6.6,5,.23.23,0,0,1,.44-.13,7.32,7.32,0,0,1-7,9.36Z" style="fill: #490e67"/>
      <path d="M31.2,90.27a2.24,2.24,0,0,1-1.58-.54c-1.05-1-.91-3,.4-5.58a.23.23,0,1,1,.41.2c-1.2,2.44-1.38,4.23-.5,5a1.82,1.82,0,0,0,1.27.43h0c2.25,0,6-2.46,9.41-6.12A25.56,25.56,0,0,0,45.22,77c.93-2.11,1-3.68.21-4.42s-2.49-.52-4.66.71a.23.23,0,0,1-.31-.08.24.24,0,0,1,.08-.32c2.36-1.34,4.2-1.56,5.2-.64s.92,2.63-.1,4.94A26.22,26.22,0,0,1,41,84c-3.51,3.8-7.34,6.26-9.75,6.26Z" style="fill: #490e67"/>
      <path d="M34.73,86.08H32.67a.23.23,0,0,1-.23-.23.23.23,0,0,1,.23-.23h2.06a1.22,1.22,0,1,0,0-2.44h-.27a1,1,0,1,1,0-2.08H37.3a1.59,1.59,0,1,0,0-3.18H31.61a.23.23,0,1,1,0-.46H37.3a2,2,0,0,1,0,4.1H34.46a.58.58,0,0,0,0,1.16h.27a1.68,1.68,0,0,1,0,3.36Z" style="fill: #490e67"/>
      <path d="M43.29,78.18h-3a1.83,1.83,0,0,1,0-3.65H41a.23.23,0,0,1,.23.23A.23.23,0,0,1,41,75h-.72a1.37,1.37,0,0,0,0,2.73h3a.23.23,0,1,1,0,.46Z" style="fill: #490e67"/>
    </g>
    <g id="orbit">
      <path d="M53.06,179.76a.37.37,0,0,1-.35-.24c-.46-1.19-.92-2.39-1.36-3.59a.38.38,0,0,1,.23-.49.39.39,0,0,1,.49.23c.44,1.19.89,2.39,1.35,3.57a.4.4,0,0,1-.22.5ZM45.82,158a.37.37,0,0,1-.36-.28c-.35-1.23-.68-2.47-1-3.7a.38.38,0,1,1,.73-.2c.32,1.24.66,2.47,1,3.69a.37.37,0,0,1-.26.47ZM43,146.83a.38.38,0,0,1-.37-.29c-.28-1.25-.55-2.5-.82-3.75a.38.38,0,0,1,.3-.45.39.39,0,0,1,.45.29c.26,1.25.53,2.5.82,3.74a.39.39,0,0,1-.29.45Zm-2.27-11.26a.39.39,0,0,1-.38-.31q-.33-1.89-.63-3.78A.38.38,0,0,1,40,131a.39.39,0,0,1,.44.32c.2,1.26.41,2.51.63,3.77a.38.38,0,0,1-.31.44ZM39,124.22a.39.39,0,0,1-.38-.33c-.16-1.27-.31-2.53-.46-3.81a.39.39,0,0,1,.34-.42.37.37,0,0,1,.42.34c.14,1.27.29,2.53.45,3.79a.38.38,0,0,1-.32.43ZM37.81,112.8a.37.37,0,0,1-.37-.35c-.11-1.27-.2-2.55-.28-3.82a.38.38,0,1,1,.76,0q.12,1.9.27,3.81a.38.38,0,0,1-.35.41Zm-.63-11.47a.37.37,0,0,1-.38-.37c0-1.27-.07-2.55-.09-3.83a.37.37,0,0,1,.37-.38h0a.38.38,0,0,1,.38.37c0,1.28.05,2.55.09,3.82a.38.38,0,0,1-.37.39Zm5-57.12H42.1a.38.38,0,0,1-.3-.45c.27-1.25.54-2.5.82-3.75a.39.39,0,0,1,.46-.28.37.37,0,0,1,.28.45c-.28,1.25-.55,2.49-.81,3.74A.39.39,0,0,1,42.17,44.21ZM44.81,33l-.09,0a.38.38,0,0,1-.28-.46c.33-1.24.66-2.47,1-3.71a.37.37,0,0,1,.46-.26.39.39,0,0,1,.27.47c-.35,1.23-.68,2.46-1,3.69A.38.38,0,0,1,44.81,33ZM48,22a.2.2,0,0,1-.11,0,.36.36,0,0,1-.25-.47c.38-1.22.77-2.44,1.18-3.66a.38.38,0,1,1,.72.24c-.4,1.21-.8,2.43-1.18,3.64A.37.37,0,0,1,48,22ZM51.7,11.1a.27.27,0,0,1-.13,0,.38.38,0,0,1-.23-.49c.44-1.2.89-2.4,1.36-3.59a.39.39,0,0,1,.49-.22.4.4,0,0,1,.22.5c-.46,1.19-.92,2.38-1.36,3.58A.37.37,0,0,1,51.7,11.1Z" style="fill: #490e67"/>
      <path d="M55.94.39l-.15,0a.37.37,0,0,1-.2-.49l.75-1.75a.39.39,0,0,1,.5-.2.39.39,0,0,1,.2.5c-.26.58-.5,1.16-.75,1.74A.37.37,0,0,1,55.94.39Z" style="fill: #490e67"/>
    </g>
  </g>
  <g id="jupiter">
    <g id="planet-2" data-name="planet">
      <path d="M74.93,149.89A15.92,15.92,0,1,1,90.84,134,15.93,15.93,0,0,1,74.93,149.89Zm0-31.37A15.46,15.46,0,1,0,90.38,134,15.47,15.47,0,0,0,74.93,118.52Z" style="fill: #490e67"/>
      <path d="M67.85,136.42a3.54,3.54,0,1,1,3.53-3.54A3.54,3.54,0,0,1,67.85,136.42Zm0-6.61a3.08,3.08,0,1,0,3.08,3.07A3.08,3.08,0,0,0,67.85,129.81Z" style="fill: #490e67"/>
      <path d="M68.25,139.17a5.08,5.08,0,0,1-3.16-1.12c-3.27-2.63-4-2.76-4-2.77H59.51v-.46H61.1c.21,0,1.06.28,4.28,2.87a4.57,4.57,0,0,0,5.94-.16,10.62,10.62,0,0,1,7.08-2.71H90.34v.46H78.4a10.13,10.13,0,0,0-6.77,2.59A5.05,5.05,0,0,1,68.25,139.17Z" style="fill: #490e67"/>
      <path d="M89.92,129.81H78.4a10.57,10.57,0,0,1-7.08-2.71,4.6,4.6,0,0,0-3.07-1.18,4.66,4.66,0,0,0-2.87,1c-3.22,2.6-4.07,2.85-4.26,2.87h-.95v-.46h.93s.72-.13,4-2.77a5,5,0,0,1,6.54.18,10.13,10.13,0,0,0,6.77,2.59H89.92Z" style="fill: #490e67"/>
      <path d="M81.17,126.7H76.59a1.88,1.88,0,0,1-1.88-1.88v-.42a1.88,1.88,0,0,1,1.88-1.88h4.58A1.88,1.88,0,0,1,83,124.4v.42A1.88,1.88,0,0,1,81.17,126.7ZM76.59,123a1.41,1.41,0,0,0-1.42,1.42v.42a1.42,1.42,0,0,0,1.42,1.42h4.58a1.43,1.43,0,0,0,1.42-1.42v-.42A1.42,1.42,0,0,0,81.17,123Z" style="fill: #490e67"/>
      <path d="M84.1,146.88H74.15a1.91,1.91,0,0,1-1.9-1.91v-.31a.3.3,0,0,0-.3-.29h-3A1.91,1.91,0,0,1,67,142.46v-.12a1.92,1.92,0,0,1,1.91-1.91h9.53a.29.29,0,0,0,.29-.29,1.91,1.91,0,0,1,1.91-1.9h9.13v.45H80.63a1.45,1.45,0,0,0-1.45,1.45.75.75,0,0,1-.75.75H68.9a1.45,1.45,0,0,0-1.45,1.45v.12a1.45,1.45,0,0,0,1.45,1.45h3a.75.75,0,0,1,.75.75V145a1.45,1.45,0,0,0,1.45,1.45H84.1Z" style="fill: #490e67"/>
    </g>
    <g id="orbit-2" data-name="orbit">
      <path d="M89,180a.37.37,0,0,1-.34-.22c-.55-1.17-1.08-2.35-1.6-3.53a.38.38,0,0,1,.7-.31c.52,1.18,1.05,2.35,1.59,3.52a.4.4,0,0,1-.19.51A.41.41,0,0,1,89,180Zm-8.54-21.58a.38.38,0,0,1-.36-.26c-.4-1.23-.8-2.46-1.18-3.69a.38.38,0,0,1,.25-.48.39.39,0,0,1,.48.25c.38,1.23.77,2.46,1.18,3.68a.39.39,0,0,1-.25.48ZM70.92,113a.37.37,0,0,1-.37-.35c-.12-1.28-.23-2.57-.33-3.86a.39.39,0,0,1,.35-.41.37.37,0,0,1,.41.35c.1,1.29.2,2.57.32,3.85A.38.38,0,0,1,71,113Zm-.75-11.58a.38.38,0,0,1-.38-.37c-.05-1.29-.08-2.58-.11-3.87a.38.38,0,0,1,.37-.39.37.37,0,0,1,.39.37c0,1.29.06,2.58.11,3.86a.39.39,0,0,1-.37.4Zm-.11-11.62h0a.37.37,0,0,1-.37-.38c0-1.3.06-2.6.11-3.89a.37.37,0,0,1,.39-.36.37.37,0,0,1,.36.39c0,1.29-.08,2.58-.1,3.87A.38.38,0,0,1,70.06,89.81Zm.53-11.61h0a.38.38,0,0,1-.35-.4q.15-2,.33-3.87a.39.39,0,0,1,.41-.35.38.38,0,0,1,.34.42c-.11,1.28-.22,2.56-.32,3.85A.37.37,0,0,1,70.59,78.2ZM83,21.63a.3.3,0,0,1-.13,0,.37.37,0,0,1-.22-.49c.45-1.21.91-2.42,1.39-3.62a.38.38,0,0,1,.49-.22.39.39,0,0,1,.22.5c-.48,1.19-.94,2.4-1.39,3.61A.38.38,0,0,1,83,21.63Zm4.37-10.76-.15,0a.38.38,0,0,1-.19-.5q.78-1.78,1.59-3.54a.38.38,0,0,1,.5-.19.39.39,0,0,1,.19.51c-.54,1.17-1.07,2.34-1.59,3.52A.38.38,0,0,1,87.33,10.87Z" style="fill: #490e67"/>
      <path d="M92.32.34a.47.47,0,0,1-.17,0A.39.39,0,0,1,92-.21l.87-1.7a.39.39,0,0,1,.52-.16.4.4,0,0,1,.16.52L92.66.13A.39.39,0,0,1,92.32.34Z" style="fill: #490e67"/>
    </g>
  </g>
  <g id="mars">
    <g id="planet-3" data-name="planet">
      <path d="M167.49,55.51a15.06,15.06,0,0,0-8.17-13.43h0l-.24-.12a15,15,0,0,0-6.73-1.58,11.9,11.9,0,0,0-1.27.06l-.27,0h0l-.24,0h0a15.14,15.14,0,0,0-1.38,29.83,15.56,15.56,0,0,0,3.19.33h.79a15.22,15.22,0,0,0,7.47-2.44l.38-.26h0l.14-.1a16.83,16.83,0,0,0,1.33-1.07c.42-.38.82-.79,1.2-1.21l.11-.12h0a3.73,3.73,0,0,0,.26-.3A15.18,15.18,0,0,0,167.49,55.51ZM154,41.12c.18,0,.36.06.53.09.36.06.73.11,1.08.19l.6.17c.32.09.65.17,1,.28l.62.26c.25.1.5.2.75.32a3.79,3.79,0,0,1-7.39-1.18v-.17a4.12,4.12,0,0,1,.51,0h.69A14.93,14.93,0,0,1,154,41.12ZM153.12,70l-.77,0a14.88,14.88,0,0,1-3-.32,14.48,14.48,0,0,1,1.19-28.52s0,.06,0,.09a4.44,4.44,0,0,0,8.63,1.47,14.42,14.42,0,0,1,7.71,12.79,14.62,14.62,0,0,1-3.29,9.21h0a2.24,2.24,0,1,0-3.22,2.89l-.05,0A14.47,14.47,0,0,1,153.12,70Zm8.94-3.73-.07.06a13.37,13.37,0,0,1-1.1.89,1.59,1.59,0,0,1-1-1.47,1.6,1.6,0,0,1,3.13-.49C162.74,65.59,162.41,65.93,162.06,66.25Z" style="fill: #490e67"/>
      <path d="M146.68,57.62a3.06,3.06,0,1,0,3.06,3.06A3.07,3.07,0,0,0,146.68,57.62Zm0,5.46a2.41,2.41,0,1,1,2.41-2.4A2.41,2.41,0,0,1,146.68,63.08Z" style="fill: #490e67"/>
      <path d="M146.08,49.65a2.26,2.26,0,1,0-2.26,2.26A2.26,2.26,0,0,0,146.08,49.65Zm-3.86,0a1.61,1.61,0,1,1,1.6,1.61A1.6,1.6,0,0,1,142.22,49.65Z" style="fill: #490e67"/>
      <path d="M162.08,53.65a2.26,2.26,0,1,0-2.26-2.25A2.26,2.26,0,0,0,162.08,53.65Zm0-3.86a1.61,1.61,0,1,1-1.6,1.61A1.6,1.6,0,0,1,162.08,49.79Z" style="fill: #490e67"/>
      <path d="M154.35,51.07a4.45,4.45,0,1,0,4.44,4.44A4.45,4.45,0,0,0,154.35,51.07Zm0,8.23a3.79,3.79,0,1,1,3.79-3.79A3.79,3.79,0,0,1,154.35,59.3Z" style="fill: #490e67"/>
    </g>
    <g id="orbit-3" data-name="orbit">
      <path d="M178.78,181.92a.37.37,0,0,1-.28-.13c-.83-.92-1.66-1.85-2.47-2.79a.38.38,0,1,1,.58-.5c.8.94,1.62,1.87,2.46,2.78a.38.38,0,0,1,0,.54A.35.35,0,0,1,178.78,181.92Zm-7.16-8.57a.42.42,0,0,1-.3-.15c-.76-1-1.5-2-2.23-3a.38.38,0,0,1,.09-.53.37.37,0,0,1,.53.09c.72,1,1.46,2,2.21,3a.37.37,0,0,1-.07.53A.4.4,0,0,1,171.62,173.35Zm-6.4-9.15a.39.39,0,0,1-.33-.18c-.67-1-1.32-2.1-2-3.17a.38.38,0,1,1,.65-.39c.64,1.06,1.29,2.11,2,3.15a.39.39,0,0,1-.12.53A.36.36,0,0,1,165.22,164.2Zm-5.61-9.66a.38.38,0,0,1-.34-.2c-.58-1.1-1.14-2.21-1.69-3.33a.38.38,0,0,1,.18-.51.39.39,0,0,1,.51.18c.54,1.11,1.1,2.21,1.67,3.31a.37.37,0,0,1-.16.51A.33.33,0,0,1,159.61,154.54Zm-4.76-10.1a.38.38,0,0,1-.35-.23c-.49-1.15-.95-2.3-1.4-3.46a.37.37,0,0,1,.22-.49.38.38,0,0,1,.49.21c.44,1.16.91,2.31,1.39,3.44a.38.38,0,0,1-.21.5A.32.32,0,0,1,154.85,144.44ZM151,134a.38.38,0,0,1-.36-.26c-.38-1.18-.74-2.37-1.09-3.57a.37.37,0,0,1,.26-.47.38.38,0,0,1,.47.26c.34,1.19.71,2.37,1.09,3.55a.39.39,0,0,1-.25.48Zm-3-10.76a.38.38,0,0,1-.37-.29c-.27-1.21-.54-2.43-.78-3.65a.37.37,0,0,1,.3-.44.37.37,0,0,1,.44.29c.25,1.22.51,2.43.79,3.63a.39.39,0,0,1-.29.45Zm-2-11a.39.39,0,0,1-.38-.33c-.17-1.22-.33-2.46-.47-3.7a.38.38,0,0,1,.33-.42.36.36,0,0,1,.42.34c.14,1.23.3,2.46.47,3.68a.38.38,0,0,1-.32.43Zm-1.1-11.11a.38.38,0,0,1-.38-.36c-.07-1.24-.13-2.48-.16-3.73a.38.38,0,0,1,.37-.39h0a.38.38,0,0,1,.38.37c0,1.24.09,2.48.16,3.71a.38.38,0,0,1-.36.4ZM144.7,90h0a.37.37,0,0,1-.37-.39c0-1.25.08-2.49.15-3.73a.4.4,0,0,1,.4-.36.38.38,0,0,1,.36.4c-.07,1.23-.12,2.47-.15,3.71A.38.38,0,0,1,144.7,90Zm.77-11.14h0a.38.38,0,0,1-.34-.42c.14-1.24.3-2.48.48-3.71a.38.38,0,0,1,.43-.32.38.38,0,0,1,.32.43c-.17,1.22-.33,2.45-.47,3.69A.39.39,0,0,1,145.47,78.82Zm23.9-61.89a.38.38,0,0,1-.22-.07.37.37,0,0,1-.08-.53c.72-1,1.47-2,2.22-3a.38.38,0,0,1,.54-.07.38.38,0,0,1,.07.53c-.76,1-1.49,2-2.22,3A.38.38,0,0,1,169.37,16.93Zm6.92-8.77a.39.39,0,0,1-.25-.1.37.37,0,0,1,0-.53c.81-1,1.64-1.88,2.48-2.8a.37.37,0,0,1,.53,0,.38.38,0,0,1,0,.54c-.84.92-1.66,1.84-2.46,2.78A.38.38,0,0,1,176.29,8.16Z" style="fill: #490e67"/>
    </g>
  </g>
  <g id="earth">
    <path id="moon" d="M307.62,122.27a.75.75,0,0,1-1.46-.23.74.74,0,0,1,.6-.73,5.77,5.77,0,0,0-8.91,1.75,1.58,1.58,0,0,1-.45,3.1h-.16a5.76,5.76,0,0,0,11.5-.47A5.67,5.67,0,0,0,307.62,122.27Zm-6.23-1.19a.75.75,0,0,1,.74.75.74.74,0,1,1-.74-.75Zm-.67,8.52a.75.75,0,0,1,0-1.49.75.75,0,0,1,0,1.49Zm.74-4.79a1.52,1.52,0,1,1,1.51,1.51A1.53,1.53,0,0,1,301.46,124.81Zm3.51,5a1,1,0,1,1,1-1A1,1,0,0,1,305,129.85Z" style="fill: #490e67"/>
    <path id="planet-4" data-name="planet" d="M272.13,72.68a20.19,20.19,0,1,0,20.19,20.19A20.22,20.22,0,0,0,272.13,72.68Zm0,39.07a18.89,18.89,0,0,1-18.87-18.88,18.6,18.6,0,0,1,.69-5L255.26,90a26.32,26.32,0,0,1,1.66,2.89,15,15,0,0,0,3.37,4.89c1.58,1.3,1.57,4.13,1.55,6v.39a3.07,3.07,0,0,0,2.76,3.06l.26,0a2.22,2.22,0,0,0,2.25-1.78c.08-.35.17-.43.7-.83a10,10,0,0,0,2.94-3.41c1.6-2.81,2-5.86.9-7.77a4.48,4.48,0,0,0-4-2.18,13,13,0,0,1-5.94-1.5,4.12,4.12,0,0,0-.88-.38,2.87,2.87,0,0,1-.9-2c.05-.57.6-1,1.63-1.28a17,17,0,0,0,9.67-7.37,2.1,2.1,0,0,0,.05-1.89c-.52-1.14-3.17-1.63-5.94-1.61a18.74,18.74,0,0,1,21.7,6c-2.92,2.35-3.76,2.51-3.92,2.48a3.77,3.77,0,0,1-1.63-.85,5.32,5.32,0,0,0-4.72-1.25,6.08,6.08,0,0,0-4.37,3.84,3.56,3.56,0,0,0,.93,3.58c1.13,1.17,3.17,1.5,5.13,1.83,1.51.25,3.58.59,3.64,1.29,0,.35.05.72.07,1.1.16,2.52.35,5.39,2.63,7.85l2.37,2.52s.11.09.29.21A18.85,18.85,0,0,1,272.13,111.75Z" style="fill: #490e67"/>
    <path id="orbit-4" data-name="orbit" d="M293.16,125.1a.36.36,0,0,1-.2-.06c-1-.63-2.09-1.33-3.2-2.08a.37.37,0,0,1-.1-.52.39.39,0,0,1,.53-.11c1.09.75,2.16,1.44,3.17,2.07a.38.38,0,0,1,.13.52A.41.41,0,0,1,293.16,125.1Zm-9.34-6.54a.4.4,0,0,1-.23-.08c-1-.75-2-1.54-3-2.36a.37.37,0,0,1-.06-.53.38.38,0,0,1,.53-.06c1,.81,2,1.6,3,2.35a.38.38,0,0,1-.23.68Zm18.09-4a.39.39,0,0,1-.32-.17c-.65-1-1.35-2.07-2.11-3.15a.38.38,0,0,1,.63-.44c.76,1.09,1.47,2.16,2.12,3.18a.38.38,0,0,1-.11.52A.42.42,0,0,1,301.91,114.57ZM275,111.32a.35.35,0,0,1-.25-.1c-.94-.82-1.89-1.66-2.85-2.53a.38.38,0,1,1,.51-.56c1,.86,1.9,1.7,2.84,2.52a.38.38,0,0,1,0,.54A.41.41,0,0,1,275,111.32Zm20.26-6a.39.39,0,0,1-.3-.14q-1.14-1.45-2.37-3a.38.38,0,0,1,0-.53.39.39,0,0,1,.54,0c.82,1,1.62,2,2.38,3a.37.37,0,0,1-.07.53A.4.4,0,0,1,295.27,105.3ZM250.9,87.08a.39.39,0,0,1-.29-.13q-1.28-1.49-2.46-2.91a.38.38,0,1,1,.58-.49c.8,1,1.61,1.92,2.45,2.9a.38.38,0,0,1-.28.63Zm-7.19-8.86a.37.37,0,0,1-.3-.15c-.8-1-1.55-2.07-2.26-3.07a.38.38,0,0,1,.09-.53.37.37,0,0,1,.53.09c.71,1,1.45,2,2.24,3a.37.37,0,0,1-.07.53A.34.34,0,0,1,243.71,78.22Zm20.81-4.87a.38.38,0,0,1-.24-.09c-1-.84-1.95-1.66-2.9-2.45a.38.38,0,0,1,.48-.59q1.44,1.2,2.91,2.46a.38.38,0,0,1,0,.54A.36.36,0,0,1,264.52,73.35Zm-27.24-4.54a.4.4,0,0,1-.33-.19c-.69-1.18-1.31-2.3-1.84-3.36a.38.38,0,0,1,.17-.51.39.39,0,0,1,.51.17c.52,1,1.13,2.15,1.82,3.31a.38.38,0,0,1-.14.52A.33.33,0,0,1,237.28,68.81Zm18.38-2.64a.4.4,0,0,1-.23-.08c-1-.79-2.06-1.53-3.05-2.24a.38.38,0,0,1,.44-.62c1,.71,2,1.46,3.07,2.26A.38.38,0,0,1,256,66,.39.39,0,0,1,255.66,66.17Zm-9.42-6.42a.35.35,0,0,1-.19-.06c-1.16-.69-2.28-1.3-3.31-1.81a.38.38,0,1,1,.34-.68c1,.52,2.18,1.14,3.36,1.84a.38.38,0,0,1,.13.52A.39.39,0,0,1,246.24,59.75ZM233.3,58.27h0a.37.37,0,0,1-.34-.4,2.78,2.78,0,0,1,2.74-2.81.38.38,0,1,1,.07.75,2.3,2.3,0,0,0-1.45.6,2.38,2.38,0,0,0-.61,1.52A.37.37,0,0,1,233.3,58.27Z" style="fill: #490e67"/>
  </g>
  <g id="Group_36" data-name="Group 36">
    <path id="Path_1371" data-name="Path 1371" d="M54,30.16a.84.84,0,0,0,.54.75,8.17,8.17,0,0,0,1.27.5l1.53.47a2.7,2.7,0,0,1,1.31.89,2.77,2.77,0,0,1-.55,3.81,4.32,4.32,0,0,1-2.67.79,4.7,4.7,0,0,1-2.44-.6,3.45,3.45,0,0,1-1.48-1.65l1.78-1a2,2,0,0,0,2.14,1.38c1.08,0,1.63-.35,1.63-1.07a.85.85,0,0,0-.53-.75,7.37,7.37,0,0,0-1.27-.52l-1.53-.47a2.69,2.69,0,0,1-1.31-.86,2.41,2.41,0,0,1-.53-1.59,2.61,2.61,0,0,1,1-2.13,3.85,3.85,0,0,1,2.51-.8,4.24,4.24,0,0,1,2.12.52,3.61,3.61,0,0,1,1.43,1.47l-1.75,1a2.06,2.06,0,0,0-2.77-.86l0,0A.84.84,0,0,0,54,30.16Z" style="fill: #490e67"/>
    <path id="Path_1372" data-name="Path 1372" d="M66.39,27.28a4.52,4.52,0,0,1,3.38,1.46,5.3,5.3,0,0,1,0,7.18,4.56,4.56,0,0,1-3.38,1.46A3.89,3.89,0,0,1,63,35.76V41H61V27.52H63v1.39A3.87,3.87,0,0,1,66.39,27.28Zm-2.5,7.24a3.12,3.12,0,0,0,4.34,0,3.24,3.24,0,0,0,0-4.4,3.14,3.14,0,0,0-4.34,0A3.22,3.22,0,0,0,63.89,34.52Z" style="fill: #490e67"/>
    <path id="Path_1373" data-name="Path 1373" d="M80.65,27.52h2.08v9.6H80.65V35.74a3.87,3.87,0,0,1-3.36,1.63,4.5,4.5,0,0,1-3.38-1.47,5.28,5.28,0,0,1,0-7.17,4.56,4.56,0,0,1,3.38-1.46,3.9,3.9,0,0,1,3.36,1.62Zm-5.2,7a3.12,3.12,0,0,0,4.34,0,3.24,3.24,0,0,0,0-4.4,3.14,3.14,0,0,0-4.34,0A3.24,3.24,0,0,0,75.45,34.52Z" style="fill: #490e67"/>
    <path id="Path_1374" data-name="Path 1374" d="M89.68,37.38a5.05,5.05,0,1,1,0-10.1h0a5,5,0,0,1,2.55.67A4.35,4.35,0,0,1,94,29.75l-1.79,1a2.44,2.44,0,0,0-1-1.08,3,3,0,0,0-1.53-.39,2.84,2.84,0,0,0-2.12.86,3.13,3.13,0,0,0,0,4.3,2.84,2.84,0,0,0,2.12.86,3,3,0,0,0,1.53-.4,2.63,2.63,0,0,0,1-1.07l1.79,1a4.62,4.62,0,0,1-1.77,1.82A5.07,5.07,0,0,1,89.68,37.38Z" style="fill: #490e67"/>
    <path id="Path_1375" data-name="Path 1375" d="M97,33.21A2.62,2.62,0,0,0,98,34.89a3.36,3.36,0,0,0,2,.58,2.79,2.79,0,0,0,2.47-1.19l1.71,1a4.75,4.75,0,0,1-4.2,2.1A5.15,5.15,0,0,1,96.25,36a5.05,5.05,0,0,1,3.63-8.67,4.47,4.47,0,0,1,3.46,1.48,5.11,5.11,0,0,1,1.36,3.59,8.33,8.33,0,0,1-.08.86Zm0-1.69h5.65a2.67,2.67,0,0,0-2.75-2.36,2.92,2.92,0,0,0-1.92.63A2.86,2.86,0,0,0,97,31.52Z" style="fill: #490e67"/>
    <path id="Path_1376" data-name="Path 1376" d="M114.06,23.69h2.08V37.13h-2.08V35.74a3.88,3.88,0,0,1-3.36,1.64,4.52,4.52,0,0,1-3.38-1.47,5.28,5.28,0,0,1,0-7.17,4.55,4.55,0,0,1,3.38-1.46,3.9,3.9,0,0,1,3.36,1.61Zm-5.2,10.83a3.12,3.12,0,0,0,4.34,0,3.24,3.24,0,0,0,0-4.4,3.14,3.14,0,0,0-4.34,0A3.24,3.24,0,0,0,108.86,34.52Z" style="fill: #490e67"/>
    <path id="Path_1377" data-name="Path 1377" d="M126.16,27.52h2.07v9.6h-2.07V35.74a3.89,3.89,0,0,1-3.36,1.63,4.47,4.47,0,0,1-3.38-1.47,5.28,5.28,0,0,1,0-7.17,4.55,4.55,0,0,1,3.38-1.46,3.91,3.91,0,0,1,3.36,1.62Zm-5.2,7a3.12,3.12,0,0,0,4.34,0,3.24,3.24,0,0,0,0-4.4,3.14,3.14,0,0,0-4.34,0A3.22,3.22,0,0,0,121,34.52Z" style="fill: #490e67"/>
    <path id="Path_1378" data-name="Path 1378" d="M141.71,27.53h2.19l-3,9.6h-2l-2-6.56-2,6.56h-2.2l-2.79-9.6H132l1.86,6.62,2-6.62h2l2,6.62Z" style="fill: #490e67"/>
    <path id="Path_1379" data-name="Path 1379" d="M152.69,27.52h2v9.16A4.1,4.1,0,0,1,153.29,40a5.35,5.35,0,0,1-3.5,1.17q-3.31,0-4.55-2.32l1.79-1a2.84,2.84,0,0,0,2.8,1.48,3,3,0,0,0,2.1-.7,2.54,2.54,0,0,0,.76-2V35.51a3.84,3.84,0,0,1-3.34,1.67,4.57,4.57,0,0,1-3.44-1.45,5.09,5.09,0,0,1,0-7,4.57,4.57,0,0,1,3.44-1.45A3.83,3.83,0,0,1,152.69,29Zm-5.23,6.86a3.19,3.19,0,0,0,4.36,0,3.09,3.09,0,0,0,0-4.3,3.19,3.19,0,0,0-4.36,0A3.09,3.09,0,0,0,147.46,34.38Z" style="fill: #490e67"/>
    <path id="Path_1380" data-name="Path 1380" d="M159,30.16a.83.83,0,0,0,.53.75,8.17,8.17,0,0,0,1.27.5l1.53.47a2.7,2.7,0,0,1,1.31.89,2.79,2.79,0,0,1-.55,3.82,4.39,4.39,0,0,1-2.67.79,4.82,4.82,0,0,1-2.44-.6,3.51,3.51,0,0,1-1.48-1.66l1.79-1a2,2,0,0,0,2.13,1.38c1.08,0,1.63-.36,1.63-1.08a.86.86,0,0,0-.53-.75,7.33,7.33,0,0,0-1.27-.51l-1.53-.47a2.78,2.78,0,0,1-1.31-.87,2.38,2.38,0,0,1-.53-1.58,2.61,2.61,0,0,1,1-2.13,3.86,3.86,0,0,1,2.51-.81,4.25,4.25,0,0,1,2.12.53,3.55,3.55,0,0,1,1.43,1.47l-1.75,1a2,2,0,0,0-2.76-.86l0,0A.81.81,0,0,0,159,30.16Z" style="fill: #490e67"/>
  </g>
  <g id="Group_37" data-name="Group 37">
    <g id="full-head">
      <g id="helmet">
        <path id="full-helmet-base" d="M15.75,41.15c4.4,7.16,19.75,6.77,25.33.91a.89.89,0,0,0-.8-1.51,3.53,3.53,0,0,0,.22-2.13c.56-.62,1.45-1.85.25-2.32a8.61,8.61,0,0,0,.5-1,2.79,2.79,0,0,0,2.55-2.78c0-2.09.56-5.25-2.22-5.8a14.76,14.76,0,0,0-3.3-5.76h0a13.44,13.44,0,0,0-6.59-3.92,2,2,0,0,0-1.78-2.22h-.2c-1.73-.06-3.85-.2-3.83,2.16A14.12,14.12,0,0,0,15.7,26.58c-1.89.59-2,2.41-1.94,4.12-.08,1.93,0,3.84,2.27,4.35a8,8,0,0,0,.45.93c-1.19.33-.57,1.57,0,2.18a4.87,4.87,0,0,0-.08,2.34C15.91,40.5,15.75,41.15,15.75,41.15Z" style="fill: #e9eaf3"/>
        <path id="neck-shadow" d="M40.49,40.65a.72.72,0,0,0-.29.06,6.14,6.14,0,0,0,.12-2.26,12.45,12.45,0,0,0,.81-1.1.82.82,0,0,0,.1-.57.77.77,0,0,0-.91-.58.74.74,0,0,0-.48.33c-2.11,3.3-6.21,5.19-11.23,5.19a17.47,17.47,0,0,1-4.77-.64.81.81,0,0,1,.44.7.84.84,0,0,1-.73.8l.11,0a2,2,0,0,0-.54,1.5l-.13,0a.83.83,0,0,1,.17,1.16.87.87,0,0,1-.53.32,21.27,21.27,0,0,0,6,.81c5,0,9.42-1.56,12.39-4.39a.77.77,0,0,0,0-1.08.75.75,0,0,0-.55-.23Z" style="fill: #b8b0d5"/>
        <path id="left-ear" d="M40.22,27.24h0A2.78,2.78,0,0,1,43,30v1.55a2.77,2.77,0,0,1-2.77,2.78h0a2.77,2.77,0,0,1-2.78-2.78V30A2.78,2.78,0,0,1,40.22,27.24Z" style="fill: #b8b0d5"/>
        <rect id="right-ear" x="14.5" y="27.24" width="4.68" height="7.11" rx="2.34" style="fill: #e9eaf3"/>
        <path id="base-head" d="M41.35,30.5c0-7-5.7-13.25-12.74-13.25S15.88,23.47,15.88,30.5s5.7,10.93,12.73,10.93S41.35,37.53,41.35,30.5Z" style="fill: #b8b0d5"/>
        <path id="main-light" d="M38.84,24.49a17.65,17.65,0,0,0-.11-1.92,12.62,12.62,0,0,0-10.12-5.32c-7,0-12.73,6.22-12.73,13.25a10.17,10.17,0,0,0,6.66,9.81c.34,0,.69,0,1,0C32,40.35,38.84,33.25,38.84,24.49Z" style="fill: #e9eaf3"/>
        <path id="outer-light-ring" d="M28.61,17.51c6.77,0,12.48,5.95,12.48,13a9.79,9.79,0,0,1-3.63,7.9,15.52,15.52,0,0,1-17.69,0,9.79,9.79,0,0,1-3.63-7.9c0-7,5.71-13,12.47-13m0-.26c-7,0-12.73,6.22-12.73,13.25s5.7,10.93,12.73,10.93,12.74-3.9,12.74-10.93-5.7-13.25-12.74-13.25Z" style="fill: #e9eaf3"/>
        <path id="upper-shadow" d="M32.13,18.76a2.19,2.19,0,0,1,1.74-.33l-.14-.07-.33-.15-.27-.11-.42-.16-.35-.12L32,17.71l-.23-.06-.25-.07-.24-.06h-.07c0,.81.08,1.62.13,2.44A2.12,2.12,0,0,1,32.13,18.76Z" style="fill: #b8b0d5"/>
        <path id="Path_1382" data-name="Path 1382" d="M23.06,23.7l.52-.2m.7-.23a15.54,15.54,0,0,1,4.34-.62,14.08,14.08,0,0,1,8.08,2.42" style="fill: none;stroke: #251a57;stroke-linecap: round;stroke-miterlimit: 10;stroke-width: 0.25px"/>
        <path id="Path_1383" data-name="Path 1383" d="M41.87,26.18a14.89,14.89,0,0,0-3.28-5.65l0-.07,0,0a13.86,13.86,0,0,0-6.43-3.9,2.37,2.37,0,0,0-2.37-2.32H27.86a2.38,2.38,0,0,0-2.37,2.25,14.53,14.53,0,0,0-10.1,9.82,3.15,3.15,0,0,0-2,3v1.47l0,1.95v0a3.23,3.23,0,0,0,2.35,2.69l.19.41a1.28,1.28,0,0,0-.35,1.73,8.22,8.22,0,0,0,.49.72,4.92,4.92,0,0,0,0,2.35.54.54,0,0,0-.18.19.4.4,0,0,0-.49.25.38.38,0,0,0,0,.15h0a1.16,1.16,0,0,0,.33,1c5.81,6.16,19.74,6.21,25.65.15a1.28,1.28,0,0,0,0-1.81,1.3,1.3,0,0,0-.56-.34,4.1,4.1,0,0,0,.1-1.67c.63-.8,1.32-1.72.36-2.58l.24-.5a3.2,3.2,0,0,0,2.67-3.13V29.24A3.2,3.2,0,0,0,41.87,26.18ZM16.19,40.81a.39.39,0,0,0,.54-.09l0,0c5.41,5.5,17.81,5.81,23.33.25l.2-.1a.6.6,0,0,1,.65.53.65.65,0,0,1-.13.43c-5.62,5.78-19.06,5.73-24.58-.13-.23-.23,0-.43-.17-.7A.41.41,0,0,1,16.19,40.81Zm24-1.74a3.85,3.85,0,0,1-.29,1.68c-5.81,5.57-17.42,5.1-23.1-.34a4,4,0,0,1,0-1.89c4.71,6.3,18.42,6.42,23.36.3,0,.08,0,.17,0,.25ZM16.74,38a9,9,0,0,1-.56-.81.6.6,0,0,1,.31-.81l.06,0,.14,0c4.63,7.83,19.23,7.79,23.87.11a.63.63,0,0,1,.45.79.76.76,0,0,1,0,.11C36.51,44.8,21.65,45,16.74,38Zm10-20.6v-.9a1,1,0,0,1,1-1h2a1,1,0,0,1,1,1v3.41a.27.27,0,0,0,.28.28.28.28,0,0,0,.28-.28V17.57c9.9,2.08,14.28,17.24,4.42,22.23a16.77,16.77,0,0,1-13.18.48c-5.41-2.16-7.67-7.4-6.25-13h0a13.22,13.22,0,0,1,9.8-9.72v2.54a.28.28,0,0,0,.28.28.29.29,0,0,0,.28-.28ZM16,27.3a12.45,12.45,0,0,0,.24,7,2,2,0,0,1-1.71-2V29.23A2,2,0,0,1,16,27.3Zm27,5a2,2,0,0,1-2,2h0a12.53,12.53,0,0,0,.24-7.1,2,2,0,0,1,1.84,2Z" style="fill: #251a57"/>
        <path id="right-indent" d="M21.68,22.72a2.15,2.15,0,0,0,.7.12,2.94,2.94,0,0,0,.51-.05,4.75,4.75,0,0,0,.64-.2A8.42,8.42,0,0,1,25,22.18a.12.12,0,0,0,.1-.15.12.12,0,0,0-.14-.1,8.37,8.37,0,0,0-1.54.42,5.26,5.26,0,0,1-.6.18,2.05,2.05,0,0,1-1.07-.05,2.21,2.21,0,0,1-1.28-1.21.12.12,0,0,0-.17-.07.14.14,0,0,0-.07.17h0A2.47,2.47,0,0,0,21.68,22.72Z" style="fill: #251a57"/>
        <path id="left-indent" d="M32.47,22.19a8,8,0,0,1,1.49.4,4.75,4.75,0,0,0,.64.2,2.07,2.07,0,0,0,.5.05,1.84,1.84,0,0,0,.7-.11,2.5,2.5,0,0,0,1.43-1.35.14.14,0,0,0,0-.18.13.13,0,0,0-.18.06v0a2.19,2.19,0,0,1-1.28,1.2,2,2,0,0,1-1.08.06,4.62,4.62,0,0,1-.6-.19,9,9,0,0,0-1.54-.41.13.13,0,0,0,0,.25Z" style="fill: #251a57"/>
        <path id="air-tube" d="M18.67,40.93c0,.35-.06.67-.34.67h-.17a2.75,2.75,0,0,0-.6-.12c-.36,0-.36.12-.72.12s-.36-.12-.72-.12c-.16,0-.33.12-.49.1s-.31-.16-.47-.18-.35.06-.51,0-.27-.21-.43-.26-.35,0-.5-.06-.24-.25-.38-.33-.35-.05-.48-.14-.2-.29-.33-.39-.34-.11-.45-.22-.15-.32-.26-.44-.31-.16-.41-.29-.09-.33-.18-.47-.28-.21-.36-.35,0-.35-.1-.5-.25-.25-.3-.41,0-.35,0-.5-.2-.29-.23-.45.08-.34.07-.5-.15-.32-.15-.49.13-.23.14-.35-.11-.24-.1-.36.15-.22.17-.34-.08-.25-.06-.37.18-.2.21-.31-.06-.27,0-.38.2-.18.24-.29,0-.27,0-.38.22-.15.27-.26,0-.27.07-.37.23-.13.3-.22,0-.27.12-.36.25-.09.33-.18.08-.25.17-.33.26-.05.36-.12.13-.24.23-.3.27,0,.38-.05.15-.18.25-.23l0,0a.67.67,0,0,1,.28,0,1.76,1.76,0,0,1,.07.4,2.15,2.15,0,0,1-.1.91h-.11c-.08,0-.1.2-.17.24h0c-.08,0-.2,0-.27,0s-.05.21-.12.27-.21,0-.27.1,0,.21-.07.28-.21.07-.26.15,0,.21,0,.29-.2.1-.24.17,0,.21,0,.3-.19.11-.22.2.07.2,0,.29-.17.13-.2.22.09.2.07.28-.15.16-.17.24.1.19.1.28-.14.17-.14.25.12.18.12.27-.12.26-.11.39.15.24.17.36-.08.28,0,.4.2.21.24.33,0,.29,0,.4.22.18.28.29,0,.29.09.4.24.13.32.24.07.28.15.37.27.1.36.18.11.27.21.35.28,0,.39.11.15.25.26.31.28,0,.4,0,.19.22.31.26.28,0,.4,0,.23.18.35.2.27-.09.4-.08.25.14.38.14c.36,0,.36-.13.72-.13s.35.13.71.13a1.2,1.2,0,0,0,.42-.08l.06,0h.06l.14,0C18.42,40.19,18.67,40.58,18.67,40.93Z" style="fill: #122632"/>
      </g>
      <g id="face">
        <g id="visor">
          <path id="visor-base" d="M39.44,31.19c0,3.72-2.7,3.71-6.33-.15-1.56-1.66-2.91-2.28-4.5-2.28s-2.29.61-3.86,2.28c-3.64,3.88-7,3.87-7,.15,0-4.24,4.84-7.67,10.82-7.67S39.44,27,39.44,31.19Z" style="fill: #be81b7"/>
          <path id="visor-shade" d="M39.44,31.19a5.84,5.84,0,0,0-1-3.18c-.06,2.4-.8,4.43-2.32,5.5l0,0C38.15,34.55,39.44,33.76,39.44,31.19Z" style="fill: #995ba4"/>
        </g>
        <g id="mouth">
          <path id="right-lip" d="M25.07,33.37a2.18,2.18,0,0,0,1.52.73,2.41,2.41,0,0,0,2.21-2" style="fill: none;stroke: #122632;stroke-linecap: round;stroke-miterlimit: 10;stroke-width: 0.4099999964237213px"/>
          <path id="left-lip" d="M32.49,33.37A2.2,2.2,0,0,1,31,34.1a2.41,2.41,0,0,1-2.21-2" style="fill: none;stroke: #122632;stroke-linecap: round;stroke-miterlimit: 10;stroke-width: 0.4099999964237213px"/>
        </g>
        <path id="nose" d="M30.19,31.57c0,.38-.63.86-1.42.86s-1.42-.48-1.42-.86.63-.69,1.42-.69S30.19,31.19,30.19,31.57Z" style="fill: #122632"/>
        <ellipse id="right-cheek" cx="21.4" cy="31.83" rx="1.11" ry="0.65" style="fill: #712672"/>
        <ellipse id="left-cheek" cx="35.83" cy="31.83" rx="1.11" ry="0.65" style="fill: #712672"/>
        <circle id="large-reflection" cx="22.02" cy="27.08" r="1.28" style="fill: #e9eaf3"/>
        <ellipse id="left-eye" cx="34.15" cy="28.86" rx="1.75" ry="2.09" style="fill: #122632"/>
        <ellipse id="right-eye" cx="23.77" cy="28.86" rx="1.75" ry="2.09" style="fill: #122632"/>
        <path id="eye-reflection" d="M22.07,28.36a1.26,1.26,0,0,0,1.23-1.3,1.49,1.49,0,0,0,0-.21A2,2,0,0,0,22.07,28.36Z" style="fill: #415a68"/>
        <circle id="small-reflection" cx="20.68" cy="29.03" r="0.44" style="fill: #e9eaf3"/>
      </g>
      <g id="face-ring">
        <path d="M28.62,39.57c-5.82,0-10.55-3.54-10.55-7.9s4.73-7.9,10.55-7.9,10.56,3.55,10.56,7.9S34.44,39.57,28.62,39.57Z" style="fill: none"/>
        <path d="M28.62,39.57c5.82,0,10.56-3.54,10.56-7.89s-4.74-7.9-10.56-7.9-10.55,3.55-10.55,7.9,4.73,7.89,10.55,7.89m0,.5a13,13,0,0,1-7.76-2.41,7.5,7.5,0,0,1-3.29-6,7.5,7.5,0,0,1,3.29-6,13,13,0,0,1,7.76-2.42,13,13,0,0,1,7.76,2.42,7.51,7.51,0,0,1,3.3,6,7.51,7.51,0,0,1-3.3,6A13,13,0,0,1,28.62,40.07Z" style="fill: #251a57"/>
      </g>
    </g>
  </g>
  <rect x="7.22" y="136.33" width="153.07" height="34.28" rx="9.01" style="fill: #e5e1e6"/>
  <rect x="7.22" y="136.33" width="153.07" height="34.28" rx="9.01" style="fill: #251a57;opacity: 0.16"/>
  <rect x="295.5" y="140.68" width="25.57" height="25.57" rx="12.78" style="fill: #251a57;opacity: 0.16"/>
  <rect x="7.22" y="51.59" width="122.56" height="23.06" rx="7.79" style="fill: #251a57;opacity: 0.16"/>
</svg>
