<svg xmlns="http://www.w3.org/2000/svg" viewBox="0 0 354.45 57.7">
  <path d="M158.61 57.7h-.94v-8.44h.94v.92a2.09 2.09 0 0 1 1.88-1 2.29 2.29 0 0 1 1.9.88 3.43 3.43 0 0 1 .69 2.2 3.53 3.53 0 0 1-.72 2.3 2.36 2.36 0 0 1-1.89.9 2.1 2.1 0 0 1-1.86-1Zm0-5.4a2.39 2.39 0 0 0 .54 1.72 1.67 1.67 0 0 0 1.2.55 1.56 1.56 0 0 0 1.26-.61 2.65 2.65 0 0 0 .49-1.72 2.51 2.51 0 0 0-.48-1.61 1.45 1.45 0 0 0-1.21-.61 1.71 1.71 0 0 0-1.26.53 2.37 2.37 0 0 0-.54 1.75Zm11.22 0a3.3 3.3 0 0 1-.77 2.25 2.65 2.65 0 0 1-2.11.89 2.6 2.6 0 0 1-2.07-.89 3.26 3.26 0 0 1-.76-2.22 3.32 3.32 0 0 1 .78-2.26 2.88 2.88 0 0 1 4.18 0 3.37 3.37 0 0 1 .75 2.24Zm-4.73 0a2.59 2.59 0 0 0 .5 1.61 1.63 1.63 0 0 0 1.35.67 1.67 1.67 0 0 0 1.4-.66 2.61 2.61 0 0 0 .49-1.62 2.79 2.79 0 0 0-.47-1.66 1.63 1.63 0 0 0-1.43-.66 1.61 1.61 0 0 0-1.35.67 2.71 2.71 0 0 0-.49 1.68Zm8.58 3h-1.16l-1.87-6.08h1l.59 2c.21.71.38 1.32.52 1.84s.23.88.27 1l.06.26c.12-.52.42-1.57.88-3.16l.58-2h1l.59 2 .9 3.17c.11-.47.42-1.53.93-3.17l.61-2h1l-1.92 6.08h-1.16l-.58-2-.84-3c-.12.51-.39 1.52-.82 3Zm11.49-.3a3.7 3.7 0 0 1-1.73.37 2.91 2.91 0 0 1-3.07-2.73 2.16 2.16 0 0 1 0-.36 3.29 3.29 0 0 1 .75-2.29 2.53 2.53 0 0 1 1.95-.84 2.34 2.34 0 0 1 1.81.74 2.94 2.94 0 0 1 .67 2.07 4.17 4.17 0 0 1-.06.71h-4.15a2 2 0 0 0 .68 1.38 2.24 2.24 0 0 0 1.51.48 2.86 2.86 0 0 0 1.64-.42Zm-2.1-5a1.6 1.6 0 0 0-1.17.49 2.28 2.28 0 0 0-.56 1.4h3.26v-.24a1.68 1.68 0 0 0-.4-1.2 1.47 1.47 0 0 0-1.13-.45Zm4.86 5.33h-1v-6.07h.94v1.06a1.66 1.66 0 0 1 1.65-1.12 1.3 1.3 0 0 1 .34 0v.94a1.54 1.54 0 0 0-.52-.09 1.24 1.24 0 0 0-1.05.59 2.28 2.28 0 0 0-.42 1.36Zm7.41-.31a3.67 3.67 0 0 1-1.73.37 2.91 2.91 0 0 1-3.07-2.73v-.36a3.34 3.34 0 0 1 .76-2.3 2.51 2.51 0 0 1 1.94-.84 2.33 2.33 0 0 1 1.81.74 3 3 0 0 1 .68 2.07 4.17 4.17 0 0 1-.06.71h-4.16a2 2 0 0 0 .68 1.38 2.25 2.25 0 0 0 1.52.48 2.85 2.85 0 0 0 1.63-.42Zm-2.1-5a1.58 1.58 0 0 0-1.16.49 2.23 2.23 0 0 0-.56 1.4h3.26v-.24a1.69 1.69 0 0 0-.41-1.2 1.44 1.44 0 0 0-1.13-.45Zm9 5.33h-.95v-.9a2.09 2.09 0 0 1-1.87 1 2.28 2.28 0 0 1-1.9-.9 3.89 3.89 0 0 1 0-4.49 2.34 2.34 0 0 1 1.88-.89 2.08 2.08 0 0 1 1.85 1v-3.32h.95Zm-4.43-3a2.46 2.46 0 0 0 .48 1.6 1.49 1.49 0 0 0 1.21.62 1.72 1.72 0 0 0 1.27-.56 2.48 2.48 0 0 0 .52-1.76 2.31 2.31 0 0 0-.54-1.69 1.64 1.64 0 0 0-1.19-.54 1.56 1.56 0 0 0-1.25.6 2.7 2.7 0 0 0-.52 1.74Zm10.09 3h-.95v-8.5h.95v3.32a2.09 2.09 0 0 1 1.85-1 2.32 2.32 0 0 1 1.88.88 3.91 3.91 0 0 1 0 4.5 2.28 2.28 0 0 1-1.9.9 2.13 2.13 0 0 1-1.88-1Zm0-3.08a2.53 2.53 0 0 0 .5 1.73 1.67 1.67 0 0 0 1.27.55 1.45 1.45 0 0 0 1.21-.61 2.48 2.48 0 0 0 .48-1.6 2.67 2.67 0 0 0-.5-1.73 1.54 1.54 0 0 0-1.25-.61 1.64 1.64 0 0 0-1.19.54 2.32 2.32 0 0 0-.54 1.7Zm8.5 2.92a3.92 3.92 0 0 1-1.11 1.74 2.32 2.32 0 0 1-1.47.5 1.4 1.4 0 0 1-.5-.06v-.85a1.4 1.4 0 0 0 .41.05 1.77 1.77 0 0 0 1.71-1.38L213 49.25h1l.79 2 1.1 2.75 1-2.76.71-2h1Z M225.4 55.09v-7.8a.6.6 0 0 1 .16-.44.57.57 0 0 1 .41-.17h2.51a.68.68 0 0 1 .45.17.82.82 0 0 1 .29.42l1.83 5.37 1.82-5.37a.82.82 0 0 1 .29-.42.7.7 0 0 1 .45-.17h2.51a.55.55 0 0 1 .41.17.66.66 0 0 1 .17.44v7.8a.6.6 0 0 1-.18.43.55.55 0 0 1-.41.17H235a.55.55 0 0 1-.41-.17.64.64 0 0 1-.18-.43v-6.15l-2.18 6.19a.79.79 0 0 1-.3.4.71.71 0 0 1-.45.16h-.88a.76.76 0 0 1-.46-.16 1.2 1.2 0 0 1-.31-.4l-2.17-6.19v6.15a.63.63 0 0 1-.17.43.58.58 0 0 1-.41.17H226a.58.58 0 0 1-.41-.17.63.63 0 0 1-.15-.43ZM237.51 55.24l1.2-4.67c.33-1.27 1.4-1.9 3.19-1.9h2.59a.33.33 0 0 1 .29.13.52.52 0 0 1 .11.32v6.12a.48.48 0 0 1-.13.32.43.43 0 0 1-.32.12h-.9a.43.43 0 0 1-.45-.41V54h-3.41l-.32 1.23a.64.64 0 0 1-.57.47h-.95a.31.31 0 0 1-.27-.11.3.3 0 0 1-.08-.2.47.47 0 0 1 0-.16Zm2.49-2.63h3.06v-2.56h-1.36a1.28 1.28 0 0 0-.8.26 1.34 1.34 0 0 0-.47.72ZM245.69 49.6v-.47a.46.46 0 0 1 .13-.33.44.44 0 0 1 .33-.14h6.1a.47.47 0 0 1 .33.14.45.45 0 0 1 .12.33v.47a.45.45 0 0 1-.12.33.41.41 0 0 1-.33.12h-2.15v5.19a.46.46 0 0 1-.13.32.42.42 0 0 1-.32.13h-.91a.54.54 0 0 1-.32-.13.43.43 0 0 1-.14-.32v-5.19h-2.14a.46.46 0 0 1-.33-.13.47.47 0 0 1-.12-.32ZM252.89 49.6v-.47a.46.46 0 0 1 .13-.33.44.44 0 0 1 .33-.14h6.1a.43.43 0 0 1 .32.14.42.42 0 0 1 .13.33v.47a.46.46 0 0 1-.13.33.38.38 0 0 1-.32.12h-2.15v5.19a.46.46 0 0 1-.13.32.44.44 0 0 1-.32.13H256a.54.54 0 0 1-.32-.13.43.43 0 0 1-.14-.32v-5.19h-2.14a.46.46 0 0 1-.33-.13.48.48 0 0 1-.13-.32ZM260.69 55.22v-6.1a.42.42 0 0 1 .14-.32.43.43 0 0 1 .32-.14h5.54a.48.48 0 0 1 .46.46v.47a.47.47 0 0 1-.46.46h-4.19v1.43h3.6a.46.46 0 0 1 .46.46v.47a.46.46 0 0 1-.46.46h-3.6v1.45h4.18a.44.44 0 0 1 .44.45v.47a.47.47 0 0 1-.46.46h-5.51a.39.39 0 0 1-.32-.13.52.52 0 0 1-.14-.35ZM275.18 55.48c0 .13-.08.21-.25.21h-1.15a.84.84 0 0 1-.4-.14 1 1 0 0 1-.34-.33l-.82-1.3a1.48 1.48 0 0 0-1.22-.8h-1.18v2.1a.45.45 0 0 1-.43.46h-.91a.47.47 0 0 1-.47-.46v-6.1a.51.51 0 0 1 .13-.33.43.43 0 0 1 .32-.14h4a2.7 2.7 0 0 1 1.8.6 2 2 0 0 1 .71 1.63c0 .95-.6 1.54-1.81 1.78a1.41 1.41 0 0 1 .53.37 4.74 4.74 0 0 1 .56.77l.88 1.41a1.07 1.07 0 0 1 .09.27Zm-5.35-3.74h2a1.72 1.72 0 0 0 .87-.2.72.72 0 0 0 .3-1 .71.71 0 0 0-.29-.28 1.77 1.77 0 0 0-.87-.2h-2ZM276 55.09v-7.83a.56.56 0 0 1 .18-.42.58.58 0 0 1 .41-.17h7.11a.57.57 0 0 1 .41.17.61.61 0 0 1 .17.42v.59a.55.55 0 0 1-.17.42.57.57 0 0 1-.41.17h-5.38v2.21h4.38a.52.52 0 0 1 .41.18.58.58 0 0 1 .17.41v.6a.55.55 0 0 1-.17.42.52.52 0 0 1-.41.17h-4.38v2.65a.55.55 0 0 1-.17.43.57.57 0 0 1-.41.17h-1.16a.59.59 0 0 1-.42-.17.67.67 0 0 1-.16-.42ZM285.46 55.24v-6.15a.46.46 0 0 1 .45-.46h.9a.45.45 0 0 1 .46.46v6.13a.47.47 0 0 1-.46.47h-.9a.48.48 0 0 1-.32-.13.39.39 0 0 1-.13-.32ZM289.32 54.67v.18H289v.87h-.22v-.87h-.34v-.18Zm1.13 1V54.76l-.09.31-.18.58h-.21l-.19-.6c0-.08-.05-.2-.08-.3a2.81 2.81 0 0 1 0 .29v.62h-.19l.07-1.05h.31l.19.52.07.26a1.63 1.63 0 0 1 .07-.26l.19-.52h.3l.08 1.05Z" fill="#e9eaf3" opacity=".6"/>
  <path fill="#e9eaf3" d="M9 21.72a2.58 2.58 0 0 0 1.66 2.33 23.54 23.54 0 0 0 4 1.58l4.75 1.46a8.23 8.23 0 0 1 4.07 2.78A7.9 7.9 0 0 1 25.05 35a8 8 0 0 1-3.32 6.76 13.73 13.73 0 0 1-8.35 2.45 14.76 14.76 0 0 1-7.6-1.86 10.89 10.89 0 0 1-4.61-5.15L6.74 34c1 2.87 3.25 4.31 6.64 4.31s5.08-1.12 5.08-3.36a2.65 2.65 0 0 0-1.64-2.33 21.09 21.09 0 0 0-4-1.61l-4.72-1.5A8.5 8.5 0 0 1 4 26.82a7.37 7.37 0 0 1-1.65-4.94 8.1 8.1 0 0 1 3.14-6.64 12.07 12.07 0 0 1 7.81-2.51 13.23 13.23 0 0 1 6.61 1.64A11.3 11.3 0 0 1 24.39 19l-5.45 3a5.65 5.65 0 0 0-5.62-3.41 5.68 5.68 0 0 0-3.11.8A2.59 2.59 0 0 0 9 21.72ZM47.66 12.73a14 14 0 0 1 10.53 4.57 15.56 15.56 0 0 1 4.37 11.16 15.5 15.5 0 0 1-4.37 11.19 14.08 14.08 0 0 1-10.53 4.55c-4.54 0-8-1.68-10.47-5v16.19h-6.46V13.5h6.46v4.31c2.43-3.39 5.93-5.08 10.47-5.08Zm-7.77 22.58A9.08 9.08 0 0 0 46.65 38a9.11 9.11 0 0 0 6.76-2.73 9.34 9.34 0 0 0 2.69-6.85 9.37 9.37 0 0 0-2.69-6.85 9.14 9.14 0 0 0-6.76-2.72 9.11 9.11 0 0 0-6.76 2.72 9.34 9.34 0 0 0-2.7 6.85 9.31 9.31 0 0 0 2.7 6.89ZM92.12 13.5h6.46v29.92h-6.46v-4.31q-3.64 5.09-10.47 5.09a14 14 0 0 1-10.53-4.58 15.57 15.57 0 0 1-4.37-11.16 15.57 15.57 0 0 1 4.37-11.19 14.07 14.07 0 0 1 10.53-4.54q6.82 0 10.47 5ZM75.9 35.31a9.75 9.75 0 0 0 13.53 0 9.34 9.34 0 0 0 2.69-6.85 9.37 9.37 0 0 0-2.69-6.85 9.77 9.77 0 0 0-13.53 0 9.37 9.37 0 0 0-2.69 6.85 9.34 9.34 0 0 0 2.69 6.85ZM120.24 44.2a15.49 15.49 0 0 1-15.8-15.74 15.43 15.43 0 0 1 15.8-15.73 15.59 15.59 0 0 1 8 2.09 13.49 13.49 0 0 1 5.38 5.63L128 23.68a7.64 7.64 0 0 0-3.08-3.38 9.12 9.12 0 0 0-4.76-1.23 8.93 8.93 0 0 0-6.61 2.69 9.14 9.14 0 0 0-2.66 6.7 9.11 9.11 0 0 0 2.66 6.7 8.91 8.91 0 0 0 6.61 2.7 9.16 9.16 0 0 0 4.76-1.26 8.24 8.24 0 0 0 3.2-3.35l5.56 3.17a14.26 14.26 0 0 1-5.5 5.69 15.59 15.59 0 0 1-7.94 2.09ZM143 31.22a8.21 8.21 0 0 0 3.29 5.23 10.55 10.55 0 0 0 6.28 1.83 8.79 8.79 0 0 0 7.72-3.71l5.32 3.11q-4.43 6.52-13.1 6.52-7.31 0-11.79-4.46a15.23 15.23 0 0 1-4.48-11.28 15.42 15.42 0 0 1 4.42-11.22A15.22 15.22 0 0 1 152 12.73a14 14 0 0 1 10.8 4.6 16 16 0 0 1 4.2 11.19 20 20 0 0 1-.24 2.7Zm-.08-5.22h17.59a8.33 8.33 0 0 0-8.51-7.41 9.06 9.06 0 0 0-6 2 8.82 8.82 0 0 0-3.08 5.41ZM196.23 1.54h6.46v41.88h-6.46v-4.31a12.13 12.13 0 0 1-10.47 5.09 14 14 0 0 1-10.53-4.58 15.57 15.57 0 0 1-4.37-11.16 15.57 15.57 0 0 1 4.37-11.19 14.07 14.07 0 0 1 10.53-4.54q6.81 0 10.47 5ZM180 35.31a9.75 9.75 0 0 0 13.53 0 9.34 9.34 0 0 0 2.69-6.85 9.37 9.37 0 0 0-2.69-6.85 9.77 9.77 0 0 0-13.53 0 9.37 9.37 0 0 0-2.69 6.85 9.34 9.34 0 0 0 2.69 6.85ZM233.92 13.5h6.46v29.92h-6.46v-4.31q-3.64 5.09-10.47 5.09a14 14 0 0 1-10.53-4.58 15.57 15.57 0 0 1-4.37-11.16 15.57 15.57 0 0 1 4.37-11.19 14.07 14.07 0 0 1 10.53-4.54q6.83 0 10.47 5Zm-16.21 21.81a9.73 9.73 0 0 0 13.52 0 9.3 9.3 0 0 0 2.69-6.85 9.33 9.33 0 0 0-2.69-6.85 9.76 9.76 0 0 0-13.52 0 9.33 9.33 0 0 0-2.71 6.85 9.3 9.3 0 0 0 2.71 6.85ZM282.39 13.5h6.82l-9.4 29.92h-6.34L267.13 23l-6.34 20.42h-6.86l-8.7-29.92h6.84l5.79 20.65 6.28-20.65h6.19l6.22 20.64ZM316.61 13.5H323v28.55q0 6.81-4.48 10.47a16.74 16.74 0 0 1-10.89 3.65q-10.35 0-14.18-7.24l5.55-3.24q2.34 4.62 8.74 4.61a9.32 9.32 0 0 0 6.55-2.18 7.88 7.88 0 0 0 2.36-6.07V38.4a11.94 11.94 0 0 1-10.41 5.2 14.29 14.29 0 0 1-10.71-4.52 15.14 15.14 0 0 1-4.37-10.92 15.17 15.17 0 0 1 4.37-10.92 14.31 14.31 0 0 1 10.71-4.51 11.94 11.94 0 0 1 10.41 5.2Zm-16.3 21.37a9.91 9.91 0 0 0 13.58 0 9.08 9.08 0 0 0 2.72-6.71 9.07 9.07 0 0 0-2.72-6.7 9.91 9.91 0 0 0-13.58 0 9 9 0 0 0-2.73 6.7 9 9 0 0 0 2.73 6.71ZM336.12 21.72a2.58 2.58 0 0 0 1.66 2.33 23.76 23.76 0 0 0 4 1.58l4.76 1.46a8.28 8.28 0 0 1 4.07 2.78 7.89 7.89 0 0 1 1.6 5.13 7.93 7.93 0 0 1-3.32 6.76 13.68 13.68 0 0 1-8.34 2.45 14.74 14.74 0 0 1-7.6-1.86 10.84 10.84 0 0 1-4.61-5.14L333.9 34c1 2.87 3.25 4.31 6.65 4.31s5.08-1.12 5.08-3.36a2.66 2.66 0 0 0-1.63-2.36 21.09 21.09 0 0 0-4-1.59l-4.76-1.47a8.59 8.59 0 0 1-4.08-2.69 7.36 7.36 0 0 1-1.64-4.94 8.07 8.07 0 0 1 3.14-6.64 12.06 12.06 0 0 1 7.81-2.51 13.25 13.25 0 0 1 6.61 1.64 11.21 11.21 0 0 1 4.47 4.61l-5.44 3a5.65 5.65 0 0 0-5.62-3.41 5.74 5.74 0 0 0-3.12.8 2.6 2.6 0 0 0-1.25 2.33Z"/>
</svg>