<svg xmlns="http://www.w3.org/2000/svg" viewBox="0 0 150 150">
  <g id="daw">
    <g>
      <path d="M115.8,62.91a41.46,41.46,0,0,0-7-13.26l-.07-.07c-.3-.39-.63-.8-1-1.2l-.08-.08c-.33-.38-.64-.73-1-1.06l-.1-.2-.15-.08-1-1c-.52-.51-1.1-1.05-1.74-1.61s-1-.88-1.59-1.32l-.89-.68-.92-.67c-.29-.21-.59-.4-.91-.61l-.26-.17-.66-.43c-1-.61-2-1.18-3-1.66l-.88-.43c-.35-.17-.69-.32-1.08-.48l-.18-.08-.59-.24-.92-.37-.33-.12c-.38-.13-.74-.26-1.08-.36l-.51-.17-.53-.16-.74-.21a6.57,6.57,0,0,0-6.56-6.42H77A6.58,6.58,0,0,0,70.4,36c-13,3.29-23.91,13.86-28,27.23a8.77,8.77,0,0,0-5.58,8.19V74.6a.65.65,0,0,0-.34,0l-.09,0c-.26.14-.43.52-.69.64s-.76,0-1,.13-.37.64-.64.83-.74.11-1,.32-.25.7-.48.93-.72.23-.92.48-.14.73-.33,1-.67.34-.84.62,0,.73-.19,1-.61.42-.74.72.06.74-.06,1-.57.5-.66.82.15.72.06,1-.51.55-.58.87.22.71.17,1-.45.61-.47.93.29.68.27,1-.38.65-.38,1,.37.9.4,1.34-.25,1-.18,1.39.52.82.63,1.25-.1,1,.05,1.4.64.72.82,1.13.06,1,.27,1.38.76.6,1,1,.22,1,.5,1.31.84.47,1.15.81.37.9.7,1.2.91.33,1.26.61.52.83.9,1.08,1,.17,1.34.39.65.73,1.06.92,1,0,1.39.16.76.61,1.2.73.95-.15,1.4-.07a1.71,1.71,0,0,1,.55.22,3.09,3.09,0,0,0,.93,2c8.51,8.38,21.21,13,35.76,13,14.29,0,26.84-4.47,35.33-12.58a3.53,3.53,0,0,0,.12-5,3.43,3.43,0,0,0-1.6-1,12.16,12.16,0,0,0,.4-3.11,9.44,9.44,0,0,0-.13-1.52c.62-.8,1.21-1.63,1.75-2.47a3.54,3.54,0,0,0-.75-4.66c.23-.46.45-.92.67-1.39a8.86,8.86,0,0,0,7.39-8.68V71.37A8.82,8.82,0,0,0,115.8,62.91ZM41.34,101.34c-.34-.09-.78.15-1.11,0s-.54-.57-.86-.71-.8,0-1.11-.15-.43-.65-.72-.85-.8-.11-1.07-.32-.32-.72-.59-1-.75-.23-1-.49-.2-.76-.41-1-.71-.36-.9-.65-.08-.79-.25-1.1-.64-.47-.78-.79.06-.79-.06-1.12-.55-.57-.65-.91.2-.77.14-1.11-.46-.66-.49-1,.32-.72.32-1.07-.35-.49-.34-.74.38-.46.41-.71-.3-.53-.26-.77.42-.42.47-.66-.25-.56-.2-.79.47-.38.55-.62-.2-.57-.12-.8.5-.34.6-.56-.13-.6,0-.81.54-.28.66-.48-.06-.62.07-.82.57-.2.71-.39,0-.61.19-.79.6-.11.77-.28.13-.6.32-.75.54,0,.75-.11l0,0c.2-.13.24-.53.45-.66l0,2.55V81a8.89,8.89,0,0,0,6.52,7.44c.17.37.34.74.54,1.15a3.55,3.55,0,0,0-1,4.8c.45.71.9,1.37,1.36,2a17.12,17.12,0,0,0-.34,5.57,1.74,1.74,0,0,0-.57-.24c-.36,0-.76.28-1.1.22S41.68,101.42,41.34,101.34Z" fill="#e9eaf3" stroke="#e9eaf3" stroke-miterlimit="10" stroke-width="2.85"/>
      <path id="full-helmet-base" d="M43.18,104.33c12.1,19.65,54.26,18.58,69.59,2.5a2.46,2.46,0,0,0-2.21-4.16,9.61,9.61,0,0,0,.59-5.84c1.55-1.72,4-5.1.7-6.39a25.3,25.3,0,0,0,1.37-2.76,7.67,7.67,0,0,0,7-7.63c-.12-5.75,1.54-14.41-6.12-16A40.06,40.06,0,0,0,105,48.28h0A37,37,0,0,0,87,37.52,5.53,5.53,0,0,0,81.5,31.4c-4.75-.16-10.56-.54-10.51,5.94-13.06,3-24,13.52-27.94,27-5.17,1.62-5.64,6.62-5.33,11.32-.21,5.31,0,10.53,6.23,11.94a27.33,27.33,0,0,0,1.23,2.56c-3.24.91-1.54,4.32.06,6-.27.79-.94,4.94-.2,6.4C43.64,102.55,43.18,104.33,43.18,104.33Z" fill="#e9eaf3"/>
      <path id="neck-shadow" d="M111.13,103a2.15,2.15,0,0,0-.8.16,16.07,16.07,0,0,0,.34-6.21,30.29,30.29,0,0,0,2.23-3,2.16,2.16,0,0,0,.28-1.57,2.11,2.11,0,0,0-.92-1.32,2.09,2.09,0,0,0-2.89.64c-5.81,9.05-17.06,14.24-30.85,14.24a47.45,47.45,0,0,1-13.11-1.75,2.19,2.19,0,0,1,1.22,1.93,2.3,2.3,0,0,1-2,2.2l.3.08a5.28,5.28,0,0,0-1.48,4.11l-.37-.1a2.24,2.24,0,0,1,.91,1.81,2.28,2.28,0,0,1-1.9,2.25,59,59,0,0,0,16.44,2.24c13.79,0,25.88-4.28,34-12.07a2.09,2.09,0,0,0,.64-1.47,2.08,2.08,0,0,0-2.09-2.14Z" fill="#b8b0d5"/>
      <rect id="left-ear" x="102.75" y="66.13" width="15.27" height="19.53" rx="5.54" fill="#b8b0d5"/>
      <rect id="right-ear" x="39.75" y="66.13" width="12.85" height="19.53" rx="5.54" fill="#e9eaf3"/>
      <path id="base-head" d="M113.49,75.07c0-19.32-15.66-36.39-35-36.39s-35,17.07-35,36.39,15.66,30,35,30S113.49,94.38,113.49,75.07Z" fill="#b8b0d5"/>
      <path id="main-light" d="M106.61,58.58a45.93,45.93,0,0,0-.31-5.28c-6.4-8.74-16.46-14.62-27.78-14.62-19.31,0-35,17.07-35,36.39,0,13.26,7.39,22.47,18.28,26.94,1,.07,1.91.11,2.88.11C87.85,102.12,106.61,82.63,106.61,58.58Z" fill="#e9eaf3"/>
      <path id="outer-light-ring" d="M78.52,39.39c18.57,0,34.26,16.34,34.26,35.68,0,8.94-3.45,16.45-10,21.7-6.1,4.91-14.72,7.61-24.28,7.61s-18.18-2.7-24.28-7.61c-6.53-5.25-10-12.76-10-21.7,0-19.34,15.69-35.68,34.26-35.68m0-.71c-19.31,0-35,17.07-35,36.39s15.66,30,35,30,35-10.71,35-30-15.66-36.39-35-36.39Z" fill="#e9eaf3"/>
      <path id="upper-shadow" d="M88.2,42.84A6.08,6.08,0,0,1,93,41.92c-.13-.06-.25-.13-.38-.18-.3-.15-.61-.29-.92-.42L90.92,41c-.37-.16-.75-.3-1.13-.44l-1-.32-1-.31-.65-.17c-.22-.07-.44-.13-.67-.18l-.68-.16-.18,0c.11,2.24.22,4.45.34,6.7A5.84,5.84,0,0,1,88.2,42.84Z" fill="#b8b0d5"/>
      <path d="M63.26,56.41l1.43-.55m1.94-.63a41.4,41.4,0,0,1,11.91-1.71,38.62,38.62,0,0,1,22.22,6.65" fill="none" stroke="#251a57" stroke-linecap="round" stroke-miterlimit="10" stroke-width="0.71"/>
      <path d="M114.94,63.22a41.21,41.21,0,0,0-9-15.54l-.1-.19-.15-.08A38.18,38.18,0,0,0,88,36.7a6.52,6.52,0,0,0-6.51-6.36H76.44a6.52,6.52,0,0,0-6.5,6.16c-12.91,3.26-23.7,13.73-27.75,27a8.68,8.68,0,0,0-5.53,8.12v4L36.72,81v.11a8.83,8.83,0,0,0,6.47,7.37l.53,1.14a3.53,3.53,0,0,0-1,4.75c.45.71.89,1.37,1.35,2-.31,1.41-.79,4.72-.09,6.44a2.06,2.06,0,0,0-.49.53,1.07,1.07,0,0,0-1.38,1.11h0a3.19,3.19,0,0,0,.91,2.74c16,16.91,54.22,17.06,70.46.41a3.53,3.53,0,0,0-1.47-5.91,11.08,11.08,0,0,0,.27-4.59c1.74-2.18,3.63-4.71,1-7.07.24-.45.46-.91.67-1.38a8.77,8.77,0,0,0,7.33-8.6V71.61A8.75,8.75,0,0,0,114.94,63.22ZM44.41,103.38A1.06,1.06,0,0,0,46,103c14.86,15.11,48.91,16,64.08.69l.57-.29a1.62,1.62,0,0,1,1.4,2.65c-15.43,15.87-52.33,15.73-67.5-.38-.63-.63,0-1.18-.45-1.92A1.33,1.33,0,0,1,44.41,103.38Zm65.9-4.77a10.2,10.2,0,0,1-.79,4.62c-16,15.31-47.85,14-63.45-.93-.53-1-.27-3.65,0-5.19,12.94,17.31,50.61,17.62,64.17.81C110.29,98.15,110.3,98.38,110.31,98.61Zm-64.4-2.9a24.65,24.65,0,0,1-1.54-2.22,1.7,1.7,0,0,1,1-2.32l.39-.08c12.7,21.51,52.81,21.39,65.54.31a1.76,1.76,0,0,1,1.14,2.45C100.22,114.35,59.41,114.85,45.91,95.71Zm27.36-56.6,0-2.45a2.86,2.86,0,0,1,2.85-2.86h5.52a2.86,2.86,0,0,1,2.86,2.86V46A.77.77,0,0,0,86,46V39.57c27.18,5.71,39.23,47.35,12.13,61.06-10,5.37-25.55,5.8-36.2,1.31C47.12,96,40.92,81.6,44.8,66.1h0C48.12,53,58.57,42.18,71.73,39.4v7a.77.77,0,1,0,1.54,0ZM43.91,66.27a34.28,34.28,0,0,0,.67,19.24,5.52,5.52,0,0,1-4.69-5.46V71.6A5.56,5.56,0,0,1,43.91,66.27Zm74.24,13.78a5.53,5.53,0,0,1-5.72,5.53,34.29,34.29,0,0,0,.66-19.5,5.54,5.54,0,0,1,5.06,5.52Z" fill="#251a57"/>
      <path id="right-indent" d="M59.49,53.71a5.55,5.55,0,0,0,1.93.33,6.81,6.81,0,0,0,1.4-.15,13.83,13.83,0,0,0,1.75-.53,21.89,21.89,0,0,1,4.1-1.12.36.36,0,0,0,.3-.4.37.37,0,0,0-.4-.3,22.44,22.44,0,0,0-4.23,1.15,14.17,14.17,0,0,1-1.66.51,5.58,5.58,0,0,1-3-.15,6.09,6.09,0,0,1-3.52-3.32.35.35,0,0,0-.46-.19.36.36,0,0,0-.19.46A6.77,6.77,0,0,0,59.49,53.71Z" fill="#251a57"/>
      <path id="left-indent" d="M89.1,52.24a22.1,22.1,0,0,1,4.1,1.12,13.83,13.83,0,0,0,1.75.53,6.81,6.81,0,0,0,1.4.15,5.55,5.55,0,0,0,1.93-.33A6.73,6.73,0,0,0,102.2,50a.34.34,0,0,0-.18-.46.36.36,0,0,0-.47.19A6,6,0,0,1,98,53.05a5.58,5.58,0,0,1-3,.15,14.17,14.17,0,0,1-1.66-.51,22.44,22.44,0,0,0-4.23-1.15.37.37,0,0,0-.4.3A.36.36,0,0,0,89.1,52.24Z" fill="#251a57"/>
      <path id="air-tube" d="M51.22,103.73c0,1-.17,1.84-.94,1.84h-.46c-.68-.07-.79-.34-1.65-.34s-1,.35-2,.35-1-.35-2-.35c-.45,0-.91.33-1.36.29s-.85-.44-1.28-.51-1,.18-1.4.07-.76-.58-1.18-.72-1,0-1.38-.16-.66-.7-1-.92-1-.14-1.33-.38-.54-.79-.89-1.07-.92-.3-1.25-.6-.39-.87-.7-1.19-.86-.45-1.14-.8-.25-.93-.49-1.3-.78-.57-1-1-.09-.95-.27-1.36-.67-.69-.81-1.13.06-.94-.05-1.38-.55-.8-.62-1.24.22-.93.18-1.38-.4-.88-.4-1.33.36-.63.37-1-.3-.68-.27-1,.43-.59.48-.92-.24-.7-.17-1,.48-.55.57-.87-.16-.72-.07-1,.55-.5.66-.8-.08-.74.06-1,.59-.43.74-.72,0-.74.18-1,.65-.35.84-.61.11-.75.32-1,.69-.25.91-.48.24-.71.48-.92.72-.14,1-.32.35-.66.64-.82.73,0,1-.13.44-.5.69-.64l.09,0a1.82,1.82,0,0,1,.76.07A5.7,5.7,0,0,1,37.29,76,6.21,6.21,0,0,1,37,78.46a.57.57,0,0,0-.32,0c-.22.11-.25.54-.46.66a.06.06,0,0,1-.05,0c-.21.09-.56,0-.74.11s-.15.57-.32.74-.6.09-.76.28,0,.58-.19.78-.57.18-.71.39.05.59-.07.8-.54.26-.65.48.12.58,0,.81-.51.32-.59.55.18.56.11.8-.47.37-.53.6.24.56.19.79-.43.42-.47.66.28.52.26.76-.39.46-.41.7.34.49.34.73-.34.72-.31,1.07.42.66.48,1-.22.76-.13,1.1.53.58.64.91-.09.78.06,1.11.6.48.77.78,0,.79.24,1.09.68.36.9.65.17.77.41,1,.73.26,1,.5.29.73.58.95.76.13,1.06.32.41.68.72.84.77,0,1.09.15.52.6.86.71.76-.12,1.1,0,.61.51,1,.56.73-.25,1.09-.22.67.4,1,.4c1,0,1-.35,2-.35s1,.35,2,.35a2.93,2.93,0,0,0,1.14-.23.58.58,0,0,1,.17,0l.16,0a2.06,2.06,0,0,1,.39,0C50.52,101.69,51.22,102.75,51.22,103.73Z" fill="#122632"/>
      <path id="visor-base" d="M108.25,77c0,10.22-7.42,14.8-17.38,4.19-4.29-4.56-8-6.27-12.35-6.27s-6.29,1.67-10.61,6.27c-10,10.65-19.12,6-19.12-4.19,0-11.63,13.31-21.06,29.73-21.06S108.25,65.35,108.25,77Z" fill="#be81b7"/>
      <path id="visor-shade" d="M108.25,77a18.37,18.37,0,0,0-2.68-8.73c-.17,6.6-4.24,14.92-8.41,17.88,2.72,1.11,0,0,0,0C103.32,89.64,108.88,84.65,108.25,77Z" fill="#995ba4"/>
      <path id="right-lip" d="M76.64,83.55A7.56,7.56,0,0,0,79,79.62" fill="none" stroke="#122632" stroke-linecap="round" stroke-miterlimit="10" stroke-width="1.41"/>
      <path id="left-lip" d="M81.41,83.64a7.49,7.49,0,0,1-2.51-4" fill="none" stroke="#122632" stroke-linecap="round" stroke-miterlimit="10" stroke-width="1.41"/>
      <path id="nose" d="M82.86,78c0,1-1.75,2.37-3.91,2.37S75,79.06,75,78s1.75-1.89,3.91-1.89S82.86,77,82.86,78Z" fill="#122632"/>
      <ellipse id="right-cheek" cx="58.71" cy="79.83" rx="3.05" ry="1.8" fill="#712672"/>
      <ellipse id="left-cheek" cx="99.7" cy="79.83" rx="3.05" ry="1.8" fill="#712672"/>
      <ellipse id="left-eye" cx="93.72" cy="70.58" rx="7.04" ry="8.41" fill="#122632"/>
      <ellipse id="right-eye" cx="65.21" cy="70.58" rx="7.24" ry="8.64" fill="#122632"/>
      <g id="face-ring">
        <path d="M78.54,56.63c16,0,29,9.73,29,21.68s-13,21.69-29,21.69-29-9.73-29-21.69,13-21.68,29-21.68m0-1.29c-16.7,0-30.28,10.3-30.28,23s13.58,23,30.28,23,30.28-10.31,30.28-23-13.58-23-30.28-23Z" fill="#251a57"/>
      </g>
      <path id="large-reflection" d="M68.48,65.27c1.5,2.08-.59,2.32-2.68,3.83s-3.74,4-5.24,1.9-1-4.64,1.42-6.78A4.52,4.52,0,0,1,68.48,65.27Z" fill="#e9eaf3"/>
      <path id="large-reflection-2" data-name="large-reflection" d="M97,65.27c1.49,2.08-.59,2.32-2.67,3.82s-3.74,4-5.23,1.9-1-4.63,1.42-6.77A4.51,4.51,0,0,1,97,65.27Z" fill="#e9eaf3"/>
      <ellipse cx="67.36" cy="71.58" rx="1.84" ry="1.11" transform="translate(-29.48 54.73) rotate(-36.87)" fill="#e9eaf3"/>
      <ellipse cx="95.76" cy="71.12" rx="1.84" ry="1.11" transform="translate(-23.52 71.68) rotate(-36.87)" fill="#e9eaf3"/>
    </g>
  </g>
</svg>
